<svg clip-rule="evenodd" fill-rule="evenodd" stroke-linecap="round" stroke-linejoin="round" stroke-miterlimit="2" viewBox="0 0 2686 460" xmlns="http://www.w3.org/2000/svg"><g transform="matrix(1.02312 0 0 1 -385.25 -676.6137)"><path d="m376.544 676.614h2624.7v459.01h-2624.7z" fill="none"/><text font-family="'Futura-Bold', 'Futura', sans-serif" font-size="14" font-weight="700" transform="matrix(26.0048 0 0 26.606 71.7173 737.703)" x="27.248" y="12.384">Chec<tspan x="62.15 71.922" y="12.384 12.384">km</tspan>at<tspan x="100.986" y="12.384">e</tspan></text><path d="m5727.41 203.131-11.28 46.659-5.78 62.738 13.24 38.425 17.66 26.471 55.13 1.836 65.32 3.322 31.96-3.795 33.69-9.465 9.73-8.405 7.35-19.821 3.11-16.207-.45-16.98.78-26.319-.81-28.618 2.72-33.23-27.96-21.234-24.41-8.233-42.79-2.056-58.47.922z" fill="#e5e5e5" transform="matrix(.97739974 0 0 .9999966 -5115.441636 676.614207)"/><g fill-rule="nonzero"><g transform="matrix(1.20159 0 0 1.22937 313.354 775.511)"><path d="m181.956 102.43c-17.275 0-31.28 14.005-31.28 31.28.044 17.257 14.023 31.236 31.28 31.28 17.275 0 31.28-14.005 31.28-31.28s-14.005-31.28-31.28-31.28zm0 46.48c-8.439 0-15.28-6.841-15.28-15.28s6.841-15.28 15.28-15.28 15.28 6.841 15.28 15.28-6.841 15.28-15.28 15.28z"/><path d="m271.076 102.43c-17.275 0-31.28 14.005-31.28 31.28.044 17.257 14.023 31.236 31.28 31.28 17.276 0 31.28-14.005 31.28-31.28s-14.005-31.28-31.28-31.28zm0 46.48c-8.439 0-15.28-6.841-15.28-15.28s6.841-15.28 15.28-15.28 15.28 6.841 15.28 15.28-6.841 15.28-15.28 15.28z"/><path d="m331.236 188.99c.28-5.393 1.344-67.025-2-86.16-3.398-19.443-20.08-35.2-49.84-35.2h-44.88v-16.72c-2.254-2.742-12.835-2.527-16 0v16h-44.96c-21.04 0-43.28 9.68-50 35.2-4.436 16.847-1.84 86.88-1.84 86.88 2.48 34.24 27.92 46.64 51.84 46.64h105.84c35.68 0 50.621-23.16 51.84-46.64zm-15.76-5.28c0 13.52-4.72 36.08-36.08 36.08h-105.84c-13.52 0-36.08-4.72-36.08-36.08v-64c0-31.44 22.64-36.08 36.08-36.08h105.84c31.44 0 36.08 22.64 36.08 36.08z"/><path d="m271.076 185.79h-89.12c-4.418 0-8 3.582-8 8s3.582 8 8 8h89.12c4.418 0 8-3.582 8-8s-3.582-8-8-8z"/></g><path d="m138.516 390.19c-11.797 0-21.36 9.563-21.36 21.36s9.563 21.36 21.36 21.36 21.36-9.563 21.36-21.36-9.563-21.36-21.36-21.36zm0 26.72c-2.96 0-5.36-2.4-5.36-5.36s2.4-5.36 5.36-5.36 5.36 2.4 5.36 5.36-2.4 5.36-5.36 5.36z" transform="matrix(1.20159 0 0 1.22937 347.035529 571.391323)"/><path d="m138.516 390.19c-11.797 0-21.36 9.563-21.36 21.36s9.563 21.36 21.36 21.36 21.36-9.563 21.36-21.36-9.563-21.36-21.36-21.36zm0 26.72c-2.96 0-5.36-2.4-5.36-5.36s2.4-5.36 5.36-5.36 5.36 2.4 5.36 5.36-2.4 5.36-5.36 5.36z" transform="matrix(1.20159 0 0 1.22937 479.369279 571.391323)"/><path d="m459 255c0 112.2-91.8 204-204 204s-204-91.8-204-204 91.8-204 204-204c20.4 0 38.25 2.55 56.1 7.65l40.801-40.8c-30.601-10.2-63.751-17.85-96.901-17.85-140.25 0-255 114.75-255 255s114.75 255 255 255 255-114.75 255-255z" stroke="#000" stroke-width="24.14" transform="matrix(.253087 0 0 .258939 521.422 707.641)"/></g><g transform="matrix(.321323 0 0 .339441 519.494 677.843)"><path d="m150.45 206.55-35.7 35.7 114.75 114.75 255-255-35.7-35.7-219.3 219.3z" fill="none" stroke="#00c9a6" stroke-miterlimit="1" stroke-width="24.94"/><path d="m150.45 206.55-35.7 35.7 114.75 114.75 255-255-35.7-35.7-219.3 219.3z" fill="#00c9a6" fill-rule="nonzero"/></g></g></svg>