<svg width="100%" height="100%" viewBox="0 0 4475 931" version="1.1" xmlns="http://www.w3.org/2000/svg" xmlns:xlink="http://www.w3.org/1999/xlink" xml:space="preserve" xmlns:serif="http://www.serif.com/" fill-rule="evenodd" clip-rule="evenodd" stroke-miterlimit="2"><g transform="matrix(1,0,0,1,-2402,-990)"><g id="Light-logo" serif:id="Light logo" transform="matrix(1.07435,0,0,1,-179.623,-0.423849)"><rect x="2402.96" y="990.424" width="4164.68" height="930.566" fill="none"/><g transform="matrix(0.940148,0,0,1.01005,1809.55,-573.093)"><g><path d="M38.01,27.08L47.57,27.08L47.57,21.47C47.57,18.6 51.93,18.6 51.93,21.47L51.93,27.08L61.49,27.08L61.49,21.47C61.49,18.6 65.85,18.6 65.85,21.47L65.85,27.36C68.98,28.18 71.41,30.73 72.07,33.9L78.78,33.9C81.65,33.9 81.65,38.26 78.78,38.26L72.26,38.26L72.26,47.82L78.78,47.82C81.65,47.82 81.65,52.18 78.78,52.18L72.26,52.18L72.26,61.74L78.78,61.74C81.65,61.74 81.65,66.1 78.78,66.1L72.07,66.1C71.72,67.76 70.89,69.24 69.74,70.39C68.68,71.45 67.34,72.24 65.85,72.63L65.85,78.53C65.85,81.4 61.49,81.4 61.49,78.53L61.49,72.91L51.93,72.91L51.93,78.53C51.93,81.4 47.57,81.4 47.57,78.53L47.57,72.91L38.01,72.91L38.01,78.53C38.01,81.4 33.65,81.4 33.65,78.53L33.65,72.63C30.52,71.81 28.1,69.27 27.43,66.1L21.22,66.1C18.35,66.1 18.35,61.74 21.22,61.74L27.24,61.74L27.24,52.18L21.22,52.18C18.35,52.18 18.35,47.82 21.22,47.82L27.24,47.82L27.24,38.26L21.22,38.26C18.35,38.26 18.35,33.9 21.22,33.9L27.43,33.9C28.1,30.74 30.53,28.19 33.65,27.36L33.65,21.47C33.65,18.6 38.01,18.6 38.01,21.47L38.01,27.08ZM35.77,31.44C33.47,31.47 31.61,33.36 31.61,35.66L31.61,64.33C31.61,66.6 33.49,68.55 35.77,68.55L63.61,68.55C64.77,68.55 65.83,68.13 66.65,67.31C67.41,66.55 67.89,65.49 67.89,64.33L67.89,35.66C67.89,33.37 66.02,31.47 63.73,31.44L35.77,31.44Z" fill="rgb(217,3,104)" fill-rule="nonzero" stroke="rgb(217,3,104)" stroke-width="3.52px" transform="matrix(9.37187,0,0,9.37187,589.41,1590.54)"/></g><g id="check-circle-outline"><path d="M150.45,206.55L114.75,242.25L229.5,357L484.5,102L448.8,66.3L229.5,285.6L150.45,206.55Z" fill="none" fill-rule="nonzero" stroke="rgb(47,178,75)" stroke-width="29.27px" stroke-linejoin="bevel" stroke-miterlimit="1" transform="matrix(1.82305,0,0,1.84102,711.358,1540.44)"/><path d="M150.45,206.55L114.75,242.25L229.5,357L484.5,102L448.8,66.3L229.5,285.6L150.45,206.55Z" fill="rgb(47,178,75)" fill-rule="nonzero" transform="matrix(1.82305,0,0,1.84102,711.358,1540.44)"/></g></g><g><text x="3614.44" y="1505.8" font-family="'Cabin-Bold', 'Cabin', sans-serif" font-weight="700" font-size="666.667px" fill="white" transform="matrix(0.930796,0,0,1,135.417,194.207)">CheckM<tspan x="5904.44px 6231.11px 6460.44px" y="1505.8px 1505.8px 1505.8px">ate</tspan></text></g></g></g></svg>