<svg clip-rule="evenodd" fill-rule="evenodd" stroke-miterlimit="2" viewBox="0 0 4555 931" xmlns="http://www.w3.org/2000/svg"><g transform="matrix(1.09362 0 0 1 -2627.93 -990.43)"><path d="m2402.96 990.424h4164.68v930.566h-4164.68z" fill="none"/><path d="m38.01 27.08h9.56v-5.61c0-2.87 4.36-2.87 4.36 0v5.61h9.56v-5.61c0-2.87 4.36-2.87 4.36 0v5.89c3.13.82 5.56 3.37 6.22 6.54h6.71c2.87 0 2.87 4.36 0 4.36h-6.52v9.56h6.52c2.87 0 2.87 4.36 0 4.36h-6.52v9.56h6.52c2.87 0 2.87 4.36 0 4.36h-6.71c-.35 1.66-1.18 3.14-2.33 4.29-1.06 1.06-2.4 1.85-3.89 2.24v5.9c0 2.87-4.36 2.87-4.36 0v-5.62h-9.56v5.62c0 2.87-4.36 2.87-4.36 0v-5.62h-9.56v5.62c0 2.87-4.36 2.87-4.36 0v-5.9c-3.13-.82-5.55-3.36-6.22-6.53h-6.21c-2.87 0-2.87-4.36 0-4.36h6.02v-9.56h-6.02c-2.87 0-2.87-4.36 0-4.36h6.02v-9.56h-6.02c-2.87 0-2.87-4.36 0-4.36h6.21c.67-3.16 3.1-5.71 6.22-6.54v-5.89c0-2.87 4.36-2.87 4.36 0zm-2.24 4.36c-2.3.03-4.16 1.92-4.16 4.22v28.67c0 2.27 1.88 4.22 4.16 4.22h27.84c1.16 0 2.22-.42 3.04-1.24.76-.76 1.24-1.82 1.24-2.98v-28.67c0-2.29-1.87-4.19-4.16-4.22z" fill="#d90368" fill-rule="nonzero" stroke="#d90368" stroke-width="3.52" transform="matrix(8.65569981021 0 0 9.4660572935 2364.37905603 1033.431927)"/><path d="m150.45 206.55-35.7 35.7 114.75 114.75 255-255-35.7-35.7-219.3 219.3z" fill="none" stroke="#2fb24b" stroke-linejoin="bevel" stroke-miterlimit="1" stroke-width="29.27" transform="matrix(1.68373798815 0 0 1.859522251 2477.008155714 982.828422)"/><path d="m150.45 206.55-35.7 35.7 114.75 114.75 255-255-35.7-35.7-219.3 219.3z" fill="#2fb24b" fill-rule="nonzero" transform="matrix(1.68373798815 0 0 1.859522251 2477.008155714 982.828422)"/><text font-family="'Cabin-Bold', 'Cabin', sans-serif" font-size="666.667" font-weight="700" transform="matrix(.914396 0 0 1 242.466 244.713)" x="3614.44" y="1505.8">CheckM<tspan x="5904.44 6231.11 6460.44" y="1505.8 1505.8 1505.8">ate</tspan></text></g></svg>