<svg width="100%" height="100%" viewBox="0 0 441 451" version="1.1" xmlns="http://www.w3.org/2000/svg" xmlns:xlink="http://www.w3.org/1999/xlink" xml:space="preserve" xmlns:serif="http://www.serif.com/" fill-rule="evenodd" clip-rule="evenodd" stroke-linecap="square" stroke-linejoin="round" stroke-miterlimit="10"><g><g transform="matrix(1,0,0,1,0,126.992)"><rect x="77.25" y="160.114" width="28.16" height="3.26" fill="rgb(227,74,51)"/></g><g transform="matrix(1,0,0,1,0,122.582)"><rect x="112.45" y="160.114" width="28.16" height="7.67" fill="rgb(227,74,51)"/></g><g transform="matrix(1,0,0,1,0,128.252)"><rect x="147.65" y="160.114" width="28.16" height="2" fill="rgb(227,74,51)"/></g><g transform="matrix(1,0,0,1,0,127.032)"><rect x="182.85" y="160.114" width="28.16" height="3.22" fill="rgb(227,74,51)"/></g><g transform="matrix(1,0,0,1,0,128.252)"><rect x="218.05" y="160.114" width="28.16" height="2" fill="rgb(227,74,51)"/></g><g transform="matrix(1,0,0,1,0,125.782)"><rect x="253.25" y="160.114" width="28.16" height="4.47" fill="rgb(227,74,51)"/></g><g transform="matrix(1,0,0,1,0,123.072)"><rect x="288.45" y="160.114" width="28.16" height="7.18" fill="rgb(227,74,51)"/></g><g transform="matrix(1,0,0,1,0,117.652)"><rect x="323.65" y="160.114" width="28.16" height="12.6" fill="rgb(227,74,51)"/></g><g transform="matrix(1,0,0,1,0,125.492)"><rect x="358.85" y="160.114" width="28.16" height="4.76" fill="rgb(227,74,51)"/></g><g transform="matrix(1,0,0,1,0,123.252)"><rect x="394.05" y="160.114" width="28.16" height="7" fill="rgb(227,74,51)"/></g><g transform="matrix(1,0,0,1,0,120.472)"><rect x="77.25" y="163.374" width="28.16" height="3.26" fill="rgb(153,50,36)"/></g><g transform="matrix(1,0,0,1,0,107.242)"><rect x="112.45" y="167.784" width="28.16" height="7.67" fill="rgb(153,50,36)"/></g><g transform="matrix(1,0,0,1,0,126.252)"><rect x="147.65" y="161.114" width="28.16" height="2" fill="rgb(153,50,36)"/></g><g transform="matrix(1,0,0,1,0,120.592)"><rect x="182.85" y="163.334" width="28.16" height="3.22" fill="rgb(153,50,36)"/></g><g transform="matrix(1,0,0,1,0,126.252)"><rect x="218.05" y="161.114" width="28.16" height="2" fill="rgb(153,50,36)"/></g><g transform="matrix(1,0,0,1,0,116.852)"><rect x="253.25" y="164.584" width="28.16" height="4.46" fill="rgb(153,50,36)"/></g><g transform="matrix(1,0,0,1,0,108.712)"><rect x="288.45" y="167.294" width="28.16" height="7.18" fill="rgb(153,50,36)"/></g><g transform="matrix(1,0,0,1,0,92.452)"><rect x="323.65" y="172.714" width="28.16" height="12.6" fill="rgb(153,50,36)"/></g><g transform="matrix(1,0,0,1,0,115.972)"><rect x="358.85" y="164.874" width="28.16" height="4.76" fill="rgb(153,50,36)"/></g><g transform="matrix(1,0,0,1,0,109.252)"><rect x="394.05" y="167.114" width="28.16" height="7" fill="rgb(153,50,36)"/></g><g transform="matrix(1,0,0,1,0,116.252)"><rect x="77.25" y="166.114" width="28.16" height="2" fill="rgb(230,230,230)"/></g><g transform="matrix(1,0,0,1,0,96.772)"><rect x="112.45" y="175.454" width="28.16" height="2.8" fill="rgb(230,230,230)"/></g><g transform="matrix(1,0,0,1,0,122.352)"><rect x="147.65" y="162.664" width="28.16" height="2.8" fill="rgb(230,230,230)"/></g><g transform="matrix(1,0,0,1,0,113.172)"><rect x="182.85" y="166.554" width="28.16" height="4.2" fill="rgb(230,230,230)"/></g><g transform="matrix(1,0,0,1,0,120.332)"><rect x="218.05" y="162.274" width="28.16" height="5.6" fill="rgb(230,230,230)"/></g><g transform="matrix(1,0,0,1,0,109.592)"><rect x="253.25" y="169.044" width="28.16" height="2.8" fill="rgb(230,230,230)"/></g><g transform="matrix(1,0,0,1,0,100.252)"><rect x="288.45" y="174.114" width="28.16" height="2" fill="rgb(230,230,230)"/></g><g transform="matrix(1,0,0,1,0,79.252)"><rect x="323.65" y="185.114" width="28.16" height="1" fill="rgb(230,230,230)"/></g><g transform="matrix(1,0,0,1,0,111.252)"><rect x="358.85" y="169.114" width="28.16" height="1" fill="rgb(230,230,230)"/></g><g transform="matrix(1,0,0,1,0,101.252)"><rect x="394.05" y="174.114" width="28.16" height="1" fill="rgb(230,230,230)"/></g><g transform="matrix(1,0,0,1,0,100.902)"><rect x="77.25" y="167.334" width="28.16" height="14.91" fill="rgb(67,162,202)"/></g><g transform="matrix(1,0,0,1,0,37.522)"><rect x="112.45" y="178.254" width="28.16" height="56.45" fill="rgb(67,162,202)"/></g><g transform="matrix(1,0,0,1,0,39.812)"><rect x="147.65" y="165.464" width="28.16" height="79.74" fill="rgb(67,162,202)"/></g><g transform="matrix(1,0,0,1,0,10.862)"><rect x="182.85" y="170.754" width="28.16" height="98.11" fill="rgb(67,162,202)"/></g><g transform="matrix(1,0,0,1,0,26.932)"><rect x="218.05" y="167.874" width="28.16" height="87.8" fill="rgb(67,162,202)"/></g><g transform="matrix(1,0,0,1,0,-15.518)"><rect x="253.25" y="171.844" width="28.16" height="122.31" fill="rgb(67,162,202)"/></g><g transform="matrix(1,0,0,1,0,-20.548)"><rect x="288.45" y="175.874" width="28.16" height="119.28" fill="rgb(67,162,202)"/></g><g transform="matrix(1,0,0,1,0,-103.548)"><rect x="323.65" y="186.014" width="28.16" height="182" fill="rgb(67,162,202)"/></g><g transform="matrix(1,0,0,1,0,-85.068)"><rect x="358.85" y="169.774" width="28.16" height="196" fill="rgb(67,162,202)"/></g><g transform="matrix(1,0,0,1,0,-101.028)"><rect x="394.05" y="174.254" width="28.16" height="203" fill="rgb(67,162,202)"/></g><g transform="matrix(1,0,0,1,0,-396.506)"><rect x="87.635" y="417.493" width="12" height="12" fill="rgb(67,162,202)"/></g><g transform="matrix(1,0,0,1,0,-396.506)"><rect x="260.952" y="417.493" width="12" height="12" fill="rgb(230,230,230)"/></g><g transform="matrix(1,0,0,1,0,-354.106)"><rect x="87.635" y="396.293" width="12" height="12" fill="rgb(153,50,36)"/></g><g transform="matrix(1,0,0,1,0,-354.106)"><rect x="260.952" y="396.293" width="12" height="12" fill="rgb(227,74,51)"/></g><g><path d="M72.999,384.096L105.878,384.096L105.878,342.02L140.815,342.02L140.815,257.992L316.791,257.992L316.791,202.351L426.641,202.351" fill="none" fill-rule="nonzero" stroke="rgb(44,98,36)" stroke-width="4px" stroke-dasharray="12,12,0,0" transform="matrix(1,0,0,1,0,-135.967)"/></g><g><text x="302.866" y="-83.83" font-family="'ArialMT', 'Arial', sans-serif" font-size="15px" fill="rgb(51,51,51)" transform="matrix(0,1,-1,0,0,0)">AlexNet, 2012</text></g><g><text x="302.866" y="-119.03" font-family="'ArialMT', 'Arial', sans-serif" font-size="15px" fill="rgb(51,51,51)" transform="matrix(0,1,-1,0,0,0)">VGG19, 2014</text></g><g><text x="302.866" y="-154.23" font-family="'ArialMT', 'Arial', sans-serif" font-size="15px" fill="rgb(51,51,51)" transform="matrix(0,1,-1,0,0,0)">Inception v3, 2015</text></g><g><text x="302.866" y="-189.43" font-family="'ArialMT', 'Arial', sans-serif" font-size="15px" fill="rgb(51,51,51)" transform="matrix(0,1,-1,0,0,0)">ResNet-152, 2015</text></g><g><text x="302.866" y="-224.63" font-family="'ArialMT', 'Arial', sans-serif" font-size="15px" fill="rgb(51,51,51)" transform="matrix(0,1,-1,0,0,0)">DenseNet-201, 2016</text></g><g><text x="302.866" y="-259.83" font-family="'ArialMT', 'Arial', sans-serif" font-size="15px" fill="rgb(51,51,51)" transform="matrix(0,1,-1,0,0,0)">ResNeXt-101, 2016</text></g><g><text x="302.866" y="-295.03" font-family="'ArialMT', 'Arial', sans-serif" font-size="15px" fill="rgb(51,51,51)" transform="matrix(0,1,-1,0,0,0)">FCN8s, 2017</text></g><g><text x="302.866" y="-330.23" font-family="'ArialMT', 'Arial', sans-serif" font-size="15px" fill="rgb(51,51,51)" transform="matrix(0,1,-1,0,0,0)">T<tspan x="311.473px 316.469px" y="-330.23px -330.23px">ra</tspan>nsformer<tspan x="383.17px 387.338px" y="-330.23px -330.23px">, </tspan>2017</text></g><g><text x="302.866" y="-365.43" font-family="'ArialMT', 'Arial', sans-serif" font-size="15px" fill="rgb(51,51,51)" transform="matrix(0,1,-1,0,0,0)">RoBER<tspan x="352.614px 360.114px 368.457px" y="-365.43px -365.43px -365.43px">Ta,</tspan> 2018</text></g><g><text x="302.866" y="-400.63" font-family="'ArialMT', 'Arial', sans-serif" font-size="15px" fill="rgb(51,51,51)" transform="matrix(0,1,-1,0,0,0)">BigGAN, 2018</text></g><text x="35.355" y="295.616" font-family="'ArialMT', 'Arial', sans-serif" font-size="15px" fill="rgb(51,51,51)">0GB</text><text x="35.355" y="225.616" font-family="'ArialMT', 'Arial', sans-serif" font-size="15px" fill="rgb(51,51,51)">5GB</text><text x="27.013" y="155.616" font-family="'ArialMT', 'Arial', sans-serif" font-size="15px" fill="rgb(51,51,51)">10GB</text><text x="27.013" y="85.616" font-family="'ArialMT', 'Arial', sans-serif" font-size="15px" fill="rgb(51,51,51)">15GB</text><text x="113.635" y="32.447" font-family="'ArialMT', 'Arial', sans-serif" font-size="14px" fill="rgb(65,65,65)">Features</text><text x="286.952" y="32.447" font-family="'ArialMT', 'Arial', sans-serif" font-size="14px" fill="rgb(65,65,65)">W<tspan x="299.914px 307.701px" y="32.447px 32.447px">or</tspan>kspace memory</text><text x="113.635" y="53.647" font-family="'ArialMT', 'Arial', sans-serif" font-size="14px" fill="rgb(65,65,65)">Parameter gradients</text><text x="286.952" y="53.647" font-family="'ArialMT', 'Arial', sans-serif" font-size="14px" fill="rgb(65,65,65)">Parameters</text><g><text x="-248.404" y="16.433" font-family="'ArialMT', 'Arial', sans-serif" font-size="18px" fill="rgb(51,51,51)" transform="matrix(0,-1,1,0,0,0)">T<tspan x="-239.403px -229.391px" y="16.433px 16.433px">ot</tspan>al memory consumed</text></g><g transform="matrix(1,0,0,1,0,-147.247)"><rect x="70.37" y="157.613" width="358.637" height="282.501" fill-opacity="0" stroke="black" stroke-width="5px" stroke-linecap="butt"/></g><text x="142.603" y="115.405" font-family="'Arial-BoldMT', 'Arial', sans-serif" font-weight="700" font-size="19px" fill="rgb(44,98,36)">GPU memory limit</text></g></svg>