<svg clip-rule="evenodd" fill-rule="evenodd" stroke-linecap="round" stroke-linejoin="round" stroke-miterlimit="10" viewBox="0 0 2082 1768" xmlns="http://www.w3.org/2000/svg"><path d="m110.5 177.432c-57.714 0-104.5 46.786-104.5 104.5s46.786 104.5 104.5 104.5 104.5-46.786 104.5-104.5-46.786-104.5-104.5-104.5" fill="#dae8fc" fill-rule="nonzero" stroke="#6c8ebf" stroke-width="11" transform="matrix(-.707107 -.707107 -.707107 .707107 387.992 1364.85)"/><path d="m425.5 174.432c-59.371 0-107.5 48.13-107.5 107.5 0 59.371 48.129 107.5 107.5 107.5s107.5-48.129 107.5-107.5c0-59.37-48.129-107.5-107.5-107.5" fill="#dae8fc" fill-rule="nonzero" stroke="#6c8ebf" stroke-width="11" transform="matrix(-.707107 -.707107 -.707107 .707107 925.73 1587.59)"/><path d="m743.5 174.432c-59.371 0-107.5 48.13-107.5 107.5 0 59.371 48.129 107.5 107.5 107.5s107.5-48.129 107.5-107.5c0-59.37-48.129-107.5-107.5-107.5" fill="#dae8fc" fill-rule="nonzero" stroke="#6c8ebf" stroke-width="11" transform="matrix(-.707107 -.707107 -.707107 .707107 1468.59 1812.45)"/><path d="m1010 1404.072h215v164h-215z" fill="#f8cecc"/><path d="m1086 3045.07h215v-164h-215z" fill="none" stroke="#b85450" stroke-width="11" transform="matrix(1 0 0 -1 -76 4449.14)"/><path d="m1332 1404.072h215v164h-215z" fill="#f8cecc"/><path d="m1408 3045.07h215v-164h-215z" fill="none" stroke="#b85450" stroke-width="11" transform="matrix(1 0 0 -1 -76 4449.14)"/><path d="m1654 1404.072h215v164h-215z" fill="#f8cecc"/><path d="m1730 3045.07h215v-164h-215z" fill="none" stroke="#b85450" stroke-width="11" transform="matrix(1 0 0 -1 -76 4449.14)"/><g stroke-width="13"><path d="m296.5 2963.07h46.1" fill="none" stroke="#4d6588" transform="matrix(1 0 0 -1 -76 4449.14)"/><path d="m293.8 281.932-27.2-10.2v20.4z" fill="#4d6588" fill-rule="nonzero" stroke="#4d6588" stroke-linecap="butt" stroke-linejoin="miter" transform="translate(0 1204.14)"/><path d="m614.5 2963.07h46.1" fill="none" stroke="#4d6588" transform="matrix(1 0 0 -1 -76 4449.14)"/><path d="m611.8 281.932-27.2-10.2v20.4z" fill="#4d6588" fill-rule="nonzero" stroke="#4d6588" stroke-linecap="butt" stroke-linejoin="miter" transform="translate(0 1204.14)"/><path d="m268.048 2815.95c51.774 36.69 125.839 73.29 215.285 73.29 76 0 147.959-26.42 205.652-56.87" fill="none" stroke="#4d6588" transform="matrix(1 0 0 -1 -76 4228.19)"/><path d="m636.565 381.029-18.512-22.388-10.156 17.693z" fill="#4d6588" fill-rule="nonzero" stroke="#4d6588" stroke-linecap="butt" stroke-linejoin="miter" transform="translate(0 1028.33)"/><path d="m932.5 2963.07h102.1" fill="none" stroke="#a04945" stroke-dasharray="26 26" transform="matrix(1 0 0 -1 -76 4449.14)"/><path d="m985.8 281.932-27.2-10.2v20.4z" fill="#a04945" fill-rule="nonzero" stroke="#a04945" stroke-linecap="butt" stroke-linejoin="miter" transform="translate(0 1204.14)"/><path d="m1306.5 2963.07h50.1" fill="none" stroke="#a04945" stroke-dasharray="26 26" transform="matrix(1 0 0 -1 -76 4449.14)"/><path d="m1307.8 281.932-27.2-10.2v20.4z" fill="#a04945" fill-rule="nonzero" stroke="#a04945" stroke-linecap="butt" stroke-linejoin="miter" transform="translate(0 1204.14)"/><path d="m1628.5 2963.07h50.1" fill="none" stroke="#a04945" stroke-dasharray="26 26" transform="matrix(1 0 0 -1 -76 4449.14)"/><path d="m1629.8 281.932-27.2-10.2v20.4z" fill="#a04945" fill-rule="nonzero" stroke="#a04945" stroke-linecap="butt" stroke-linejoin="miter" transform="translate(0 1204.14)"/><path d="m1306.5 2824.29c52.29 28.85 120.07 53.95 197.67 53.95 65.64 0 127.2-17.96 179.11-40.97" fill="none" stroke="#a04945" stroke-dasharray="26 26" transform="matrix(1 0 0 -1 -76 4225.53)"/><path d="m1631.71 388.898-19.92-21.139-8.99 18.314z" fill="#a04945" fill-rule="nonzero" stroke="#a04945" stroke-linecap="butt" stroke-linejoin="miter" transform="translate(0 1011.34)"/><path d="m595.354 3133.33c85.47-48.49 223.919-107.29 392.741-107.29 144.345 0 276.795 42.99 372.855 85.76" fill="none" stroke="#a04945" stroke-dasharray="26 26" transform="matrix(1 0 0 -1 -76 4682.37)"/><path d="m1309.57 188.203-28.95 2.331 8.67 18.464z" fill="#a04945" fill-rule="nonzero" stroke="#a04945" stroke-linecap="butt" stroke-linejoin="miter" transform="translate(0 1370.8)"/><path d="m278.636 3238.1c136.447-80.94 411.593-214.9 738.034-214.9 281.4 0 521.31 99.55 667.79 178.86" fill="none" stroke="#a04945" stroke-dasharray="26 26" transform="matrix(1 0 0 -1 -76 4784.3)"/><path d="m1632.19 176.871-28.71 4.409 9.98 17.792z" fill="#a04945" fill-rule="nonzero" stroke="#a04945" stroke-linecap="butt" stroke-linejoin="miter" transform="translate(0 1392.06)"/></g><path d="m-128.282 2200.56h954.709" fill="none" stroke="#000" stroke-dasharray="5 45" stroke-opacity=".27" stroke-width="5" transform="matrix(.00348818 -.999994 .999994 .00348818 -1928.69 1064.95)"/><path d="m112.18 2199.93h954.71" fill="none" stroke="#000" stroke-dasharray="5 45" stroke-opacity=".27" stroke-width="5" transform="matrix(.00348818 -.999994 .999994 .00348818 -1688.44 1304.79)"/><path d="m353.534 2199.93h954.706" fill="none" stroke="#000" stroke-dasharray="5 45" stroke-opacity=".27" stroke-width="5" transform="matrix(.00348818 -.999994 .999994 .00348818 -1447.93 1546.14)"/><path d="m1070.2 1726.96-1.81 293.34 5.14 661.36" fill="none" stroke="#000" stroke-dasharray="5 45" stroke-opacity=".27" stroke-width="5" transform="matrix(1 0 0 -1 -76 2931.62)"/><path d="m835.221 2204.31h954.709" fill="none" stroke="#000" stroke-dasharray="5 45" stroke-opacity=".27" stroke-width="5" transform="matrix(.00348797 -.999994 .999994 .00348797 -972.302 2032.19)"/><path d="m1075.74 2199.93h954.71" fill="none" stroke="#000" stroke-dasharray="5 45" stroke-opacity=".27" stroke-width="5" transform="matrix(.00348797 -.999994 .999994 .00348797 -728.241 2268.34)"/><path d="m1316.13 2200.56h954.7" fill="none" stroke="#000" stroke-dasharray="5 45" stroke-opacity=".27" stroke-width="5" transform="matrix(.00348797 -.999994 .999994 .00348797 -489.323 2509.35)"/><path d="m1896.25 1588.54h-1768.25v1088.47" fill="none" stroke="#000" stroke-width="14" transform="matrix(1 0 0 -1 -76 2788.55)"/><path d="m52 1656.46-10.8 28.8h21.6z" fill-rule="nonzero" stroke="#000" stroke-linecap="butt" stroke-linejoin="miter" stroke-width="14" transform="translate(0 -1573.72)"/><path d="m1849.05 567.991-28.8-10.8v21.6z" fill-rule="nonzero" stroke="#000" stroke-linecap="butt" stroke-linejoin="miter" stroke-width="14" transform="translate(0 632.019)"/><path d="m1624 1026h291.88v147.143h-291.88z" fill="#fff"/><path d="m1305.19 1950.05h242.97" fill="none" stroke="#000" stroke-width="13" transform="matrix(-.663932 .747793 -.747793 -.663932 3756.12 700.886)"/><path d="m826.72 2056.88h265.02" fill="none" stroke="#000" stroke-width="13" transform="matrix(.675703 -.737174 .737174 .675703 -1281.2 -102.843)"/><path d="m962.986 414.636h86.524v62.062h-86.524z" fill="#f8cecc"/><path d="m1038.99 1953.7h86.52v-62.06h-86.52z" fill="none" stroke="#b85450" stroke-width="11" transform="matrix(1 0 0 -1 -76 2368.34)"/><path d="m997.5 1343.69c-33.258-18.19-60.217-2.2-60.217 35.7-.001 37.91 26.96 83.39 60.217 101.58 33.26 18.19 60.22 2.21 60.22-35.7 0-37.9-26.96-83.38-60.22-101.58" fill="#fff" fill-rule="nonzero" transform="matrix(-.509942 -.860209 -.860209 .509942 2721.07 493.517)"/><path d="m1076.15 2213.55h237.1" fill="none" stroke="#000" stroke-width="13" transform="matrix(-.657562 .753401 -.753401 -.657562 3571.98 1292.01)"/><path d="m1420.51 314.64h86.525v62.062h-86.525z" fill="#f8cecc"/><path d="m1496.51 1853.7h86.52v-62.06h-86.52z" fill="none" stroke="#b85450" stroke-width="11" transform="matrix(1 0 0 -1 -76 2168.34)"/><path d="m1456.5 1441.36c-33.26-18.19-60.22-2.21-60.22 35.7s26.96 83.39 60.22 101.58 60.22 2.21 60.22-35.7-26.96-83.39-60.22-101.58" fill="#fff" fill-rule="nonzero" transform="matrix(-.509949 -.860205 -.860205 .509949 3498.15 740.866)"/><path d="m1535 2019.41h275.75" fill="none" stroke="#000" stroke-width="13" transform="matrix(-.665271 .746602 -.746602 -.665271 4217.48 636.899)"/><path d="m1723.5 1384.36c-33.26-18.19-60.22-2.21-60.22 35.7s26.96 83.39 60.22 101.58 60.22 2.21 60.22-35.7-26.96-83.39-60.22-101.58" fill="#fff" fill-rule="nonzero" transform="matrix(-.509949 -.860205 -.860205 .509949 3852.27 1056.61)"/><path d="m1677.88 371.917h86.524v62.061h-86.524z" fill="#f8cecc"/><path d="m1753.88 1910.97h86.53v-62.06h-86.53z" fill="none" stroke="#b85450" stroke-width="11" transform="matrix(1 0 0 -1 -76 2282.89)"/><path d="m854.497 1742.8h97.348" fill="none" stroke="#000" stroke-width="13" transform="matrix(.640208 -.768202 .768202 .640208 -1089.87 -156.135)"/><path d="m951.595 1538.73c-1.026-.98-2.704-.98-3.73 0l-38.055 36.35c-1.026.98-2.704.98-3.73 0l-38.054-36.35c-1.026-.98-2.705-.98-3.73 0l-19.582 18.7c-1.026.98-1.026 2.59 0 3.57l38.055 36.34c1.026.98 1.026 2.58 0 3.56l-38.055 36.34c-1.026.98-1.026 2.59 0 3.57l19.581 18.7c1.026.98 2.704.98 3.73 0l38.055-36.35c1.026-.98 2.704-.98 3.73 0l38.054 36.35c1.026.97 2.704.97 3.73 0l19.581-18.71c1.026-.97 1.026-2.58 0-3.56l-38.054-36.34c-1.025-.98-1.025-2.58 0-3.56l38.054-36.34c1.026-.98 1.026-2.59 0-3.57z" fill="#f26077" fill-rule="nonzero" transform="translate(0 -1430.24)"/><path d="m1027.6 1706.27c-1.03.98-2.71.98-3.73 0l-38.06-36.35c-1.026-.98-2.704-.98-3.73 0l-38.054 36.35c-1.026.98-2.705.98-3.73 0l-19.582-18.7c-1.026-.98-1.026-2.58 0-3.56l38.055-36.35c1.026-.98 1.026-2.58 0-3.56l-38.055-36.34c-1.026-.98-1.026-2.59 0-3.57l19.581-18.69c1.026-.98 2.704-.98 3.73 0l38.055 36.34c1.026.98 2.704.98 3.73 0l38.05-36.34c1.03-.98 2.71-.98 3.73 0l19.58 18.7c1.03.97 1.03 2.58 0 3.56l-38.05 36.34c-1.02.98-1.02 2.58 0 3.56l38.05 36.35c1.03.97 1.03 2.58 0 3.56z" fill="none" stroke="#984651" stroke-width="7" transform="matrix(1 0 0 -1 -76 1814.76)"/><path d="m994.145 817.861c-39.145-.133-70.879 31.493-70.879 70.639s31.734 70.987 70.879 71.12 70.885-31.493 70.875-70.639c.01-39.146-31.73-70.988-70.875-71.12" fill="#fff" fill-rule="nonzero" transform="matrix(-.705905 -.708306 -.708306 .705905 2325.42 956.052)"/><path d="m1002.79 734.651c-28.109-.123-50.893 22.561-50.893 50.666 0 28.106 22.784 50.989 50.893 51.112 28.1.123 50.88-22.561 50.88-50.666s-22.78-50.989-50.88-51.112" fill="#fff" fill-rule="nonzero" transform="matrix(-.705558 -.708652 -.708652 .705558 2266.98 1138.84)"/><path d="m943.842 827.855v65.487c0 7.221 6.25 13.097 13.929 13.097h64.999c7.68 0 13.93-5.876 13.93-13.097v-65.487zm27.858 56.755c0 2.41-2.08 4.366-4.643 4.366s-4.643-1.956-4.643-4.366v-39.292c0-2.41 2.08-4.366 4.643-4.366s4.643 1.956 4.643 4.366zm23.214 0c0 2.41-2.08 4.366-4.643 4.366s-4.643-1.956-4.643-4.366v-39.292c0-2.41 2.08-4.366 4.643-4.366s4.643 1.956 4.643 4.366zm23.216 0c0 2.41-2.08 4.366-4.64 4.366-2.57 0-4.65-1.956-4.65-4.366v-39.292c0-2.41 2.08-4.366 4.65-4.366 2.56 0 4.64 1.956 4.64 4.366z" fill="#f26077" fill-rule="nonzero" transform="translate(0 33.7064)"/><path d="m1019.84 2417.14v-65.48c0-7.22 6.25-13.1 13.93-13.1h65c7.68 0 13.93 5.88 13.93 13.1v65.48zm27.86-56.75c0-2.41-2.08-4.37-4.64-4.37-2.57 0-4.65 1.96-4.65 4.37v39.29c0 2.41 2.08 4.37 4.65 4.37 2.56 0 4.64-1.96 4.64-4.37zm23.21 0c0-2.41-2.08-4.37-4.64-4.37s-4.64 1.96-4.64 4.37v39.29c0 2.41 2.08 4.37 4.64 4.37s4.64-1.96 4.64-4.37zm23.22 0c0-2.41-2.08-4.37-4.64-4.37-2.57 0-4.65 1.96-4.65 4.37v39.29c0 2.41 2.08 4.37 4.65 4.37 2.56 0 4.64-1.96 4.64-4.37z" fill="none" stroke="#803d47" stroke-width="6" transform="matrix(1 0 0 -1 -76 3278.71)"/><path d="m1041.34 932.634h-27.85v-4.366c0-7.221-6.25-13.098-13.933-13.098h-18.572c-7.679 0-13.928 5.877-13.928 13.098v4.366h-27.857c-5.122 0-9.286 3.916-9.286 8.731v4.366c0 2.41 2.08 4.366 4.643 4.366h111.433c2.56 0 4.64-1.956 4.64-4.366v-4.366c0-4.815-4.17-8.731-9.29-8.731zm-64.998-4.366c0-2.406 2.085-4.366 4.643-4.366h18.572c2.563 0 4.643 1.96 4.643 4.366v4.366h-27.858z" fill="#f26077" fill-rule="nonzero" transform="translate(0 -97.2673)"/><path d="m1117.34 2312.37h-27.85v4.36c0 7.22-6.25 13.1-13.93 13.1h-18.57c-7.68 0-13.93-5.88-13.93-13.1v-4.36h-27.86c-5.12 0-9.29-3.92-9.29-8.73v-4.37c0-2.41 2.08-4.37 4.65-4.37h111.43c2.56 0 4.64 1.96 4.64 4.37v4.37c0 4.81-4.17 8.73-9.29 8.73zm-65 4.36c0 2.41 2.09 4.37 4.65 4.37h18.57c2.56 0 4.64-1.96 4.64-4.37v-4.36h-27.86z" fill="none" stroke="#803d47" stroke-width="6" transform="matrix(1 0 0 -1 -76 3147.73)"/><path d="m758.801 998.861c-39.146-.134-70.879 31.489-70.88 70.639 0 39.15 31.734 70.99 70.88 71.12s70.879-31.49 70.879-70.64c0-39.14-31.734-70.986-70.879-71.119" fill="#fff" fill-rule="nonzero" transform="matrix(-.705907 -.708305 -.708305 .705907 2052.15 480.585)"/><path d="m745.621 915.307c-24.311-6.413-44.019 8.771-44.019 33.913s19.708 50.722 44.019 57.14c24.311 6.41 44.018-8.776 44.018-33.919 0-25.142-19.708-50.722-44.018-57.134" fill="#fff" fill-rule="nonzero" transform="matrix(-.610309 -.792163 -.792163 .610309 1961.82 811.418)"/><path d="m708.497 1008.86v65.48c0 7.22 6.25 13.1 13.929 13.1h65c7.679 0 13.929-5.88 13.929-13.1v-65.48zm27.858 56.75c0 2.41-2.08 4.37-4.643 4.37s-4.643-1.96-4.643-4.37v-39.29c0-2.41 2.08-4.37 4.643-4.37s4.643 1.96 4.643 4.37zm23.214 0c0 2.41-2.08 4.37-4.643 4.37s-4.643-1.96-4.643-4.37v-39.29c0-2.41 2.08-4.37 4.643-4.37s4.643 1.96 4.643 4.37zm23.214 0c0 2.41-2.08 4.37-4.643 4.37-2.562 0-4.643-1.96-4.643-4.37v-39.29c0-2.41 2.081-4.37 4.643-4.37 2.563 0 4.643 1.96 4.643 4.37z" fill="#f26077" fill-rule="nonzero" transform="translate(0 -328.294)"/><path d="m784.497 2236.14v-65.48c0-7.22 6.25-13.1 13.929-13.1h65c7.679 0 13.929 5.88 13.929 13.1v65.48zm27.858-56.75c0-2.41-2.08-4.37-4.643-4.37s-4.643 1.96-4.643 4.37v39.29c0 2.41 2.08 4.37 4.643 4.37s4.643-1.96 4.643-4.37zm23.214 0c0-2.41-2.08-4.37-4.643-4.37s-4.643 1.96-4.643 4.37v39.29c0 2.41 2.08 4.37 4.643 4.37s4.643-1.96 4.643-4.37zm23.214 0c0-2.41-2.08-4.37-4.643-4.37-2.562 0-4.643 1.96-4.643 4.37v39.29c0 2.41 2.081 4.37 4.643 4.37 2.563 0 4.643-1.96 4.643-4.37z" fill="none" stroke="#803d47" stroke-width="6" transform="matrix(1 0 0 -1 -76 2916.71)"/><path d="m805.997 1113.63h-27.857v-4.36c0-7.22-6.249-13.1-13.928-13.1h-18.572c-7.679 0-13.928 5.88-13.928 13.1v4.36h-27.857c-5.121 0-9.286 3.92-9.286 8.74v4.36c0 2.41 2.08 4.37 4.643 4.37h111.428c2.563 0 4.643-1.96 4.643-4.37v-4.36c0-4.82-4.164-8.74-9.286-8.74zm-65-4.36c0-2.41 2.085-4.37 4.643-4.37h18.572c2.558 0 4.643 1.96 4.643 4.37v4.36h-27.858z" fill="#f26077" fill-rule="nonzero" transform="translate(0 -459.267)"/><path d="m881.997 2131.37h-27.857v4.36c0 7.22-6.249 13.1-13.928 13.1h-18.572c-7.679 0-13.928-5.88-13.928-13.1v-4.36h-27.857c-5.121 0-9.286-3.92-9.286-8.73v-4.37c0-2.41 2.08-4.37 4.643-4.37h111.428c2.563 0 4.643 1.96 4.643 4.37v4.37c0 4.81-4.164 8.73-9.286 8.73zm-65 4.36c0 2.41 2.085 4.37 4.643 4.37h18.572c2.558 0 4.643-1.96 4.643-4.37v-4.36h-27.858zm0 0h.001" fill="none" stroke="#803d47" stroke-width="6" transform="matrix(1 0 0 -1 -76 2785.73)"/><path d="m1450.56 914.165c-24.31-6.412-44.01 8.771-44.01 33.913 0 25.143 19.7 50.723 44.01 57.132 24.31 6.41 44.02-8.768 44.02-33.91s-19.71-50.722-44.02-57.135" fill="#fff" fill-rule="nonzero" transform="matrix(-.610308 -.792164 -.792164 .610308 3096.08 1371.69)"/><path d="m1458 998.86c-39.14-.133-70.88 31.49-70.88 70.64s31.73 70.99 70.88 71.12 70.88-31.49 70.88-70.64c0-39.14-31.73-70.986-70.88-71.12" fill="#fff" fill-rule="nonzero" transform="matrix(-.705903 -.708308 -.708308 .705903 3244.91 975.84)"/><path d="m1407.7 1008.86v65.48c0 7.22 6.25 13.1 13.93 13.1h65c7.68 0 13.92-5.88 13.92-13.1v-65.48zm27.85 56.75c0 2.41-2.08 4.37-4.64 4.37s-4.64-1.96-4.64-4.37v-39.29c0-2.41 2.08-4.37 4.64-4.37s4.64 1.96 4.64 4.37zm23.22 0c0 2.41-2.08 4.37-4.64 4.37-2.57 0-4.65-1.96-4.65-4.37v-39.29c0-2.41 2.08-4.37 4.65-4.37 2.56 0 4.64 1.96 4.64 4.37zm23.21 0c0 2.41-2.08 4.37-4.64 4.37s-4.64-1.96-4.64-4.37v-39.29c0-2.41 2.08-4.37 4.64-4.37s4.64 1.96 4.64 4.37z" fill="#f26077" fill-rule="nonzero" transform="translate(0 -328.294)"/><text fill="#4d6588" font-family="'HelveticaNeue-Bold', 'Helvetica Neue'" font-size="90" font-weight="700" x="79.675" y="1518.76">A</text><text fill="#4d6588" font-family="'HelveticaNeue-Bold', 'Helvetica Neue'" font-size="90" font-weight="700" x="393.82" y="1518.76">B</text><text fill="#4d6588" font-family="'HelveticaNeue-Bold', 'Helvetica Neue'" font-size="90" font-weight="700" x="710.155" y="1518.76">C</text><text fill="#a04945" font-family="'HelveticaNeue-Bold', 'Helvetica Neue'" font-size="90" font-weight="700" x="1053.84" y="1518.76">∇<tspan x="1114.48" y="1518.76">C</tspan></text><text fill="#a04945" font-family="'HelveticaNeue-Bold', 'Helvetica Neue'" font-size="90" font-weight="700" x="1377.5" y="1518.76">∇<tspan x="1438.14" y="1518.76">B</tspan></text><text fill="#a04945" font-family="'HelveticaNeue-Bold', 'Helvetica Neue'" font-size="90" font-weight="700" x="1700.36" y="1518.76">∇<tspan x="1761" y="1518.76">A</tspan></text><text fill="#5e5e5e" font-family="'HelveticaNeue', 'Helvetica Neue'" font-size="70" x="257.33" y="1283.42">1</text><text fill="#5e5e5e" font-family="'HelveticaNeue', 'Helvetica Neue'" font-size="70" x="497.728" y="1283.42">2</text><text fill="#5e5e5e" font-family="'HelveticaNeue', 'Helvetica Neue'" font-size="70" x="736.852" y="1283.42">3</text><text fill="#5e5e5e" font-family="'HelveticaNeue', 'Helvetica Neue'" font-size="70" x="975.976" y="1283.42">4</text><text fill="#5e5e5e" font-family="'HelveticaNeue', 'Helvetica Neue'" font-size="70" x="1214.84" y="1283.42">5</text><text fill="#5e5e5e" font-family="'HelveticaNeue', 'Helvetica Neue'" font-size="70" x="1453.44" y="1283.42">6</text><text fill="#5e5e5e" font-family="'HelveticaNeue', 'Helvetica Neue'" font-size="70" x="1692.04" y="1283.42">7</text><text font-family="'HelveticaNeue-Bold', 'Helvetica Neue'" font-size="120" font-weight="700" x="96.669" y="203.057">RAM</text><text font-family="'HelveticaNeue-Bold', 'Helvetica Neue'" font-size="120" font-weight="700" x="1629" y="1143.33">Time</text><text fill="#a04945" font-family="'HelveticaNeue-Bold', 'Helvetica Neue'" font-size="90" font-weight="700" x="932.815" y="395.901">∇<tspan x="993.455" y="395.901">C</tspan></text><text fill="#a04945" font-family="'HelveticaNeue-Bold', 'Helvetica Neue'" font-size="90" font-weight="700" x="1392" y="295.901">∇<tspan x="1452.64" y="295.901">B</tspan></text><text fill="#a04945" font-family="'HelveticaNeue-Bold', 'Helvetica Neue'" font-size="90" font-weight="700" x="1660" y="347.901">∇<tspan x="1720.64" y="347.901">A</tspan></text><text fill="#75363f" font-family="'HelveticaNeue-Bold', 'Helvetica Neue'" font-size="90" font-weight="700" x="805.781" y="89.401">OOM</text><text fill="#797979" font-family="'HelveticaNeue-Bold', 'Helvetica Neue'" font-size="90" font-weight="700" x="957.79" y="1022.94">C</text><text fill="#797979" font-family="'HelveticaNeue-Bold', 'Helvetica Neue'" font-size="90" font-weight="700" x="723.246" y="842.347">B</text><text fill="#797979" font-family="'HelveticaNeue-Bold', 'Helvetica Neue'" font-size="90" font-weight="700" x="1419.74" y="840.421">A</text><path d="m1483.7 2236.14v-65.48c0-7.22 6.25-13.1 13.93-13.1h65c7.68 0 13.92 5.88 13.92 13.1v65.48zm27.85-56.75c0-2.41-2.08-4.37-4.64-4.37s-4.64 1.96-4.64 4.37v39.29c0 2.41 2.08 4.37 4.64 4.37s4.64-1.96 4.64-4.37zm23.22 0c0-2.41-2.08-4.37-4.64-4.37-2.57 0-4.65 1.96-4.65 4.37v39.29c0 2.41 2.08 4.37 4.65 4.37 2.56 0 4.64-1.96 4.64-4.37zm23.21 0c0-2.41-2.08-4.37-4.64-4.37s-4.64 1.96-4.64 4.37v39.29c0 2.41 2.08 4.37 4.64 4.37s4.64-1.96 4.64-4.37z" fill="none" stroke="#803d47" stroke-linejoin="miter" stroke-width="6" transform="matrix(1 0 0 -1 -76 2916.71)"/><path d="m1505.2 1113.63h-27.86v-4.36c0-7.22-6.25-13.1-13.93-13.1h-18.57c-7.68 0-13.93 5.88-13.93 13.1v4.36h-27.86c-5.12 0-9.28 3.92-9.28 8.74v4.36c0 2.41 2.08 4.37 4.64 4.37h111.43c2.56 0 4.64-1.96 4.64-4.37v-4.36c0-4.82-4.16-8.74-9.28-8.74zm-65-4.36c0-2.41 2.08-4.37 4.64-4.37h18.57c2.56 0 4.64 1.96 4.64 4.37v4.36h-27.85z" fill="#f26077" fill-rule="nonzero" transform="translate(0 -459.267)"/><path d="m1581.2 2131.37h-27.86v4.36c0 7.22-6.25 13.1-13.93 13.1h-18.57c-7.68 0-13.93-5.88-13.93-13.1v-4.36h-27.86c-5.12 0-9.28-3.92-9.28-8.73v-4.37c0-2.41 2.08-4.37 4.64-4.37h111.43c2.56 0 4.64 1.96 4.64 4.37v4.37c0 4.81-4.16 8.73-9.28 8.73zm-65 4.36c0 2.41 2.08 4.37 4.64 4.37h18.57c2.56 0 4.64-1.96 4.64-4.37v-4.36h-27.85z" fill="none" stroke="#803d47" stroke-linejoin="miter" stroke-width="6" transform="matrix(1 0 0 -1 -76 2785.73)"/><path d="m345.09 2252.79h256.876" fill="none" stroke="#000" stroke-width="13" transform="matrix(.641301 -.767289 .767289 .641301 -1634.69 -305.593)"/><path d="m513.545 1076.11c-32.266-1.99-58.423 22.61-58.423 54.93 0 32.33 26.157 60.15 58.423 62.13 32.266 1.99 58.423-22.6 58.423-54.93s-26.157-60.15-58.423-62.13" fill="#dae8fc" fill-rule="nonzero" stroke="#6c8ebf" stroke-width="11" transform="matrix(-.685035 -.72851 -.72851 .685035 1691.94 230.213)"/><path d="m70.921 2557.89h305.669" fill="none" stroke="#000" stroke-width="13" transform="matrix(.626531 -.779397 .779397 .626531 -1986.05 -347.312)"/><path d="m276.305 789.41c-32.266-1.986-58.423 22.61-58.423 54.937s26.157 60.144 58.423 62.131c32.267 1.986 58.423-22.61 58.423-54.937s-26.156-60.144-58.423-62.131" fill="#dae8fc" fill-rule="nonzero" stroke="#6c8ebf" stroke-width="11" transform="matrix(-.685035 -.72851 -.72851 .685035 1083.32 540.476)"/><path d="m583.946 1969.26h256.682" fill="none" stroke="#000" stroke-width="13" transform="matrix(.646962 -.762522 .762522 .646962 -1326.14 -238.641)"/><path d="m758.801 1360.26c-32.266-1.99-58.424 22.61-58.423 54.94 0 32.32 26.157 60.14 58.423 62.13 32.266 1.98 58.423-22.61 58.422-54.94 0-32.33-26.157-60.14-58.422-62.13" fill="#dae8fc" fill-rule="nonzero" stroke="#6c8ebf" stroke-width="11" transform="matrix(-.685035 -.72851 -.72851 .685035 2312.21 -69.9228)"/><path d="m1230.31 1104.26c-32.27-1.99-58.43 22.61-58.43 54.94 0 32.32 26.16 60.14 58.43 62.13 32.26 1.98 58.42-22.61 58.42-54.94s-26.16-60.14-58.42-62.13" fill="#dae8fc" fill-rule="nonzero" stroke="#6c8ebf" stroke-width="11" transform="matrix(-.685033 -.728512 -.728512 .685033 2920.21 704.947)"/><text fill="#4d6588" font-family="'HelveticaNeue-Bold', 'Helvetica Neue'" font-size="90" font-weight="700" x="484.895" y="666.054">B</text><text fill="#4d6588" font-family="'HelveticaNeue-Bold', 'Helvetica Neue'" font-size="90" font-weight="700" x="248.511" y="949.901">A</text><text fill="#4d6588" font-family="'HelveticaNeue-Bold', 'Helvetica Neue'" font-size="90" font-weight="700" x="724.319" y="381.901">C</text><text fill="#4d6588" font-family="'HelveticaNeue-Bold', 'Helvetica Neue'" font-size="90" font-weight="700" x="1201.66" y="637.901">B</text></svg>