<svg width="100%" height="100%" viewBox="0 0 2082 1768" version="1.1" xmlns="http://www.w3.org/2000/svg" xmlns:xlink="http://www.w3.org/1999/xlink" xml:space="preserve" xmlns:serif="http://www.serif.com/" fill-rule="evenodd" clip-rule="evenodd" stroke-linecap="round" stroke-linejoin="round" stroke-miterlimit="10"><g><path d="M110.5,177.432C52.786,177.432 6,224.218 6,281.932C6,339.646 52.786,386.432 110.5,386.432C168.214,386.432 215,339.646 215,281.932C215,224.218 168.214,177.432 110.5,177.432" fill="rgb(218,232,252)" fill-rule="nonzero" stroke="rgb(108,142,191)" stroke-width="11px" transform="matrix(-0.707107,-0.707107,-0.707107,0.707107,387.992,1364.85)"/></g><g><path d="M425.5,174.432C366.129,174.432 318,222.562 318,281.932C318,341.303 366.129,389.432 425.5,389.432C484.871,389.432 533,341.303 533,281.932C533,222.562 484.871,174.432 425.5,174.432" fill="rgb(218,232,252)" fill-rule="nonzero" stroke="rgb(108,142,191)" stroke-width="11px" transform="matrix(-0.707107,-0.707107,-0.707107,0.707107,925.73,1587.59)"/></g><g><path d="M743.5,174.432C684.129,174.432 636,222.562 636,281.932C636,341.303 684.129,389.432 743.5,389.432C802.871,389.432 851,341.303 851,281.932C851,222.562 802.871,174.432 743.5,174.432" fill="rgb(218,232,252)" fill-rule="nonzero" stroke="rgb(108,142,191)" stroke-width="11px" transform="matrix(-0.707107,-0.707107,-0.707107,0.707107,1468.59,1812.45)"/></g><g transform="matrix(1,0,0,1,0,1204.14)"><rect x="1010" y="199.932" width="215" height="164" fill="rgb(248,206,204)"/></g><g><path d="M1086,3045.07L1301,3045.07L1301,2881.07L1086,2881.07L1086,3045.07ZM1086,3045.07L1086,3045.07" fill="none" fill-rule="nonzero" stroke="rgb(184,84,80)" stroke-width="11px" transform="matrix(1,0,0,-1,-76,4449.14)"/></g><g transform="matrix(1,0,0,1,0,1204.14)"><rect x="1332" y="199.932" width="215" height="164" fill="rgb(248,206,204)"/></g><g><path d="M1408,3045.07L1623,3045.07L1623,2881.07L1408,2881.07L1408,3045.07ZM1408,3045.07L1408,3045.07" fill="none" fill-rule="nonzero" stroke="rgb(184,84,80)" stroke-width="11px" transform="matrix(1,0,0,-1,-76,4449.14)"/></g><g transform="matrix(1,0,0,1,0,1204.14)"><rect x="1654" y="199.932" width="215" height="164" fill="rgb(248,206,204)"/></g><g><path d="M1730,3045.07L1945,3045.07L1945,2881.07L1730,2881.07L1730,3045.07ZM1730,3045.07L1730,3045.07" fill="none" fill-rule="nonzero" stroke="rgb(184,84,80)" stroke-width="11px" transform="matrix(1,0,0,-1,-76,4449.14)"/></g><g><path d="M296.5,2963.07L342.6,2963.07" fill="none" fill-rule="nonzero" stroke="rgb(77,101,136)" stroke-width="13px" transform="matrix(1,0,0,-1,-76,4449.14)"/></g><g><path d="M293.8,281.932L266.6,271.732L266.6,292.132L293.8,281.932Z" fill="rgb(77,101,136)" fill-rule="nonzero" stroke="rgb(77,101,136)" stroke-width="13px" stroke-linecap="butt" stroke-linejoin="miter" transform="matrix(1,0,0,1,0,1204.14)"/></g><g><path d="M614.5,2963.07L660.6,2963.07" fill="none" fill-rule="nonzero" stroke="rgb(77,101,136)" stroke-width="13px" transform="matrix(1,0,0,-1,-76,4449.14)"/></g><g><path d="M611.8,281.932L584.6,271.732L584.6,292.132L611.8,281.932Z" fill="rgb(77,101,136)" fill-rule="nonzero" stroke="rgb(77,101,136)" stroke-width="13px" stroke-linecap="butt" stroke-linejoin="miter" transform="matrix(1,0,0,1,0,1204.14)"/></g><g><path d="M268.048,2815.95C319.822,2852.64 393.887,2889.24 483.333,2889.24C559.333,2889.24 631.292,2862.82 688.985,2832.37" fill="none" fill-rule="nonzero" stroke="rgb(77,101,136)" stroke-width="13px" transform="matrix(1,0,0,-1,-76,4228.19)"/></g><g><path d="M636.565,381.029L618.053,358.641L607.897,376.334L636.565,381.029Z" fill="rgb(77,101,136)" fill-rule="nonzero" stroke="rgb(77,101,136)" stroke-width="13px" stroke-linecap="butt" stroke-linejoin="miter" transform="matrix(1,0,0,1,0,1028.33)"/></g><g><path d="M932.5,2963.07L1034.6,2963.07" fill="none" fill-rule="nonzero" stroke="rgb(160,73,69)" stroke-width="13px" stroke-dasharray="26,26" transform="matrix(1,0,0,-1,-76,4449.14)"/></g><g><path d="M985.8,281.932L958.6,271.732L958.6,292.132L985.8,281.932Z" fill="rgb(160,73,69)" fill-rule="nonzero" stroke="rgb(160,73,69)" stroke-width="13px" stroke-linecap="butt" stroke-linejoin="miter" transform="matrix(1,0,0,1,0,1204.14)"/></g><g><path d="M1306.5,2963.07L1356.6,2963.07" fill="none" fill-rule="nonzero" stroke="rgb(160,73,69)" stroke-width="13px" stroke-dasharray="26,26" transform="matrix(1,0,0,-1,-76,4449.14)"/></g><g><path d="M1307.8,281.932L1280.6,271.732L1280.6,292.132L1307.8,281.932Z" fill="rgb(160,73,69)" fill-rule="nonzero" stroke="rgb(160,73,69)" stroke-width="13px" stroke-linecap="butt" stroke-linejoin="miter" transform="matrix(1,0,0,1,0,1204.14)"/></g><g><path d="M1628.5,2963.07L1678.6,2963.07" fill="none" fill-rule="nonzero" stroke="rgb(160,73,69)" stroke-width="13px" stroke-dasharray="26,26" transform="matrix(1,0,0,-1,-76,4449.14)"/></g><g><path d="M1629.8,281.932L1602.6,271.732L1602.6,292.132L1629.8,281.932Z" fill="rgb(160,73,69)" fill-rule="nonzero" stroke="rgb(160,73,69)" stroke-width="13px" stroke-linecap="butt" stroke-linejoin="miter" transform="matrix(1,0,0,1,0,1204.14)"/></g><g><path d="M1306.5,2824.29C1358.79,2853.14 1426.57,2878.24 1504.17,2878.24C1569.81,2878.24 1631.37,2860.28 1683.28,2837.27" fill="none" fill-rule="nonzero" stroke="rgb(160,73,69)" stroke-width="13px" stroke-dasharray="26,26" transform="matrix(1,0,0,-1,-76,4225.53)"/></g><g><path d="M1631.71,388.898L1611.79,367.759L1602.8,386.073L1631.71,388.898Z" fill="rgb(160,73,69)" fill-rule="nonzero" stroke="rgb(160,73,69)" stroke-width="13px" stroke-linecap="butt" stroke-linejoin="miter" transform="matrix(1,0,0,1,0,1011.34)"/></g><g><path d="M595.354,3133.33C680.824,3084.84 819.273,3026.04 988.095,3026.04C1132.44,3026.04 1264.89,3069.03 1360.95,3111.8" fill="none" fill-rule="nonzero" stroke="rgb(160,73,69)" stroke-width="13px" stroke-dasharray="26,26" transform="matrix(1,0,0,-1,-76,4682.37)"/></g><g><path d="M1309.57,188.203L1280.62,190.534L1289.29,208.998L1309.57,188.203Z" fill="rgb(160,73,69)" fill-rule="nonzero" stroke="rgb(160,73,69)" stroke-width="13px" stroke-linecap="butt" stroke-linejoin="miter" transform="matrix(1,0,0,1,0,1370.8)"/></g><g><path d="M278.636,3238.1C415.083,3157.16 690.229,3023.2 1016.67,3023.2C1298.07,3023.2 1537.98,3122.75 1684.46,3202.06" fill="none" fill-rule="nonzero" stroke="rgb(160,73,69)" stroke-width="13px" stroke-dasharray="26,26" transform="matrix(1,0,0,-1,-76,4784.3)"/></g><g><path d="M1632.19,176.871L1603.48,181.28L1613.46,199.072L1632.19,176.871Z" fill="rgb(160,73,69)" fill-rule="nonzero" stroke="rgb(160,73,69)" stroke-width="13px" stroke-linecap="butt" stroke-linejoin="miter" transform="matrix(1,0,0,1,0,1392.06)"/></g><g><path d="M-128.282,2200.56L826.427,2200.56" fill="none" fill-rule="nonzero" stroke="black" stroke-opacity="0.27" stroke-width="5px" stroke-dasharray="5,45" transform="matrix(0.00348818,-0.999994,0.999994,0.00348818,-1928.69,1064.95)"/></g><g><path d="M112.18,2199.93L1066.89,2199.93" fill="none" fill-rule="nonzero" stroke="black" stroke-opacity="0.27" stroke-width="5px" stroke-dasharray="5,45" transform="matrix(0.00348818,-0.999994,0.999994,0.00348818,-1688.44,1304.79)"/></g><g><path d="M353.534,2199.93L1308.24,2199.93" fill="none" fill-rule="nonzero" stroke="black" stroke-opacity="0.27" stroke-width="5px" stroke-dasharray="5,45" transform="matrix(0.00348818,-0.999994,0.999994,0.00348818,-1447.93,1546.14)"/></g><g><path d="M1070.2,1726.96L1068.39,2020.3L1073.53,2681.66" fill="none" fill-rule="nonzero" stroke="black" stroke-opacity="0.27" stroke-width="5px" stroke-dasharray="5,45" transform="matrix(1,0,0,-1,-76,2931.62)"/></g><g><path d="M835.221,2204.31L1789.93,2204.31" fill="none" fill-rule="nonzero" stroke="black" stroke-opacity="0.27" stroke-width="5px" stroke-dasharray="5,45" transform="matrix(0.00348797,-0.999994,0.999994,0.00348797,-972.302,2032.19)"/></g><g><path d="M1075.74,2199.93L2030.45,2199.93" fill="none" fill-rule="nonzero" stroke="black" stroke-opacity="0.27" stroke-width="5px" stroke-dasharray="5,45" transform="matrix(0.00348797,-0.999994,0.999994,0.00348797,-728.241,2268.34)"/></g><g><path d="M1316.13,2200.56L2270.83,2200.56" fill="none" fill-rule="nonzero" stroke="black" stroke-opacity="0.27" stroke-width="5px" stroke-dasharray="5,45" transform="matrix(0.00348797,-0.999994,0.999994,0.00348797,-489.323,2509.35)"/></g><g><path d="M1896.25,1588.54L128,1588.54L128,2677.01" fill="none" fill-rule="nonzero" stroke="black" stroke-width="14px" transform="matrix(1,0,0,-1,-76,2788.55)"/></g><g><path d="M52,1656.46L41.2,1685.26L62.8,1685.26L52,1656.46Z" fill-rule="nonzero" stroke="black" stroke-width="14px" stroke-linecap="butt" stroke-linejoin="miter" transform="matrix(1,0,0,1,0,-1573.72)"/></g><g><path d="M1849.05,567.991L1820.25,557.191L1820.25,578.791L1849.05,567.991Z" fill-rule="nonzero" stroke="black" stroke-width="14px" stroke-linecap="butt" stroke-linejoin="miter" transform="matrix(1,0,0,1,0,632.019)"/></g><g transform="matrix(1,0,0,1,0,431.143)"><rect x="1624" y="594.857" width="291.88" height="147.143" fill="white"/></g><g><path d="M1305.19,1950.05L1548.16,1950.05" fill="none" fill-rule="nonzero" stroke="black" stroke-width="13px" transform="matrix(-0.663932,0.747793,-0.747793,-0.663932,3756.12,700.886)"/></g><g><path d="M826.72,2056.88L1091.74,2056.88" fill="none" fill-rule="nonzero" stroke="black" stroke-width="13px" transform="matrix(0.675703,-0.737174,0.737174,0.675703,-1281.2,-102.843)"/></g><g transform="matrix(1,0,0,1,0,-876.664)"><rect x="962.986" y="1291.3" width="86.524" height="62.062" fill="rgb(248,206,204)"/></g><g><path d="M1038.99,1953.7L1125.51,1953.7L1125.51,1891.64L1038.99,1891.64L1038.99,1953.7ZM1038.99,1953.7L1038.99,1953.7" fill="none" fill-rule="nonzero" stroke="rgb(184,84,80)" stroke-width="11px" transform="matrix(1,0,0,-1,-76,2368.34)"/></g><g><path d="M997.5,1343.69C964.242,1325.5 937.283,1341.49 937.283,1379.39C937.282,1417.3 964.243,1462.78 997.5,1480.97C1030.76,1499.16 1057.72,1483.18 1057.72,1445.27C1057.72,1407.37 1030.76,1361.89 997.5,1343.69" fill="white" fill-rule="nonzero" transform="matrix(-0.509942,-0.860209,-0.860209,0.509942,2721.07,493.517)"/></g><g><path d="M1076.15,2213.55L1313.25,2213.55" fill="none" fill-rule="nonzero" stroke="black" stroke-width="13px" transform="matrix(-0.657562,0.753401,-0.753401,-0.657562,3571.98,1292.01)"/></g><g transform="matrix(1,0,0,1,0,-1076.66)"><rect x="1420.51" y="1391.3" width="86.525" height="62.062" fill="rgb(248,206,204)"/></g><g><path d="M1496.51,1853.7L1583.03,1853.7L1583.03,1791.64L1496.51,1791.64L1496.51,1853.7ZM1496.51,1853.7L1496.51,1853.7" fill="none" fill-rule="nonzero" stroke="rgb(184,84,80)" stroke-width="11px" transform="matrix(1,0,0,-1,-76,2168.34)"/></g><g><path d="M1456.5,1441.36C1423.24,1423.17 1396.28,1439.15 1396.28,1477.06C1396.28,1514.97 1423.24,1560.45 1456.5,1578.64C1489.76,1596.83 1516.72,1580.85 1516.72,1542.94C1516.72,1505.03 1489.76,1459.55 1456.5,1441.36" fill="white" fill-rule="nonzero" transform="matrix(-0.509949,-0.860205,-0.860205,0.509949,3498.15,740.866)"/></g><g><path d="M1535,2019.41L1810.75,2019.41" fill="none" fill-rule="nonzero" stroke="black" stroke-width="13px" transform="matrix(-0.665271,0.746602,-0.746602,-0.665271,4217.48,636.899)"/></g><g><path d="M1723.5,1384.36C1690.24,1366.17 1663.28,1382.15 1663.28,1420.06C1663.28,1457.97 1690.24,1503.45 1723.5,1521.64C1756.76,1539.83 1783.72,1523.85 1783.72,1485.94C1783.72,1448.03 1756.76,1402.55 1723.5,1384.36" fill="white" fill-rule="nonzero" transform="matrix(-0.509949,-0.860205,-0.860205,0.509949,3852.27,1056.61)"/></g><g transform="matrix(1,0,0,1,0,-962.113)"><rect x="1677.88" y="1334.03" width="86.524" height="62.061" fill="rgb(248,206,204)"/></g><g><path d="M1753.88,1910.97L1840.41,1910.97L1840.41,1848.91L1753.88,1848.91L1753.88,1910.97ZM1753.88,1910.97L1753.88,1910.97" fill="none" fill-rule="nonzero" stroke="rgb(184,84,80)" stroke-width="11px" transform="matrix(1,0,0,-1,-76,2282.89)"/></g><g><path d="M854.497,1742.8L951.845,1742.8" fill="none" fill-rule="nonzero" stroke="black" stroke-width="13px" transform="matrix(0.640208,-0.768202,0.768202,0.640208,-1089.87,-156.135)"/></g><g><path d="M951.595,1538.73C950.569,1537.75 948.891,1537.75 947.865,1538.73L909.81,1575.08C908.784,1576.06 907.106,1576.06 906.08,1575.08L868.026,1538.73C867,1537.75 865.321,1537.75 864.296,1538.73L844.714,1557.43C843.688,1558.41 843.688,1560.02 844.714,1561L882.769,1597.34C883.795,1598.32 883.795,1599.92 882.769,1600.9L844.714,1637.24C843.688,1638.22 843.688,1639.83 844.714,1640.81L864.295,1659.51C865.321,1660.49 866.999,1660.49 868.025,1659.51L906.08,1623.16C907.106,1622.18 908.784,1622.18 909.81,1623.16L947.864,1659.51C948.89,1660.48 950.568,1660.48 951.594,1659.51L971.175,1640.8C972.201,1639.83 972.201,1638.22 971.175,1637.24L933.121,1600.9C932.096,1599.92 932.096,1598.32 933.121,1597.34L971.175,1561C972.201,1560.02 972.201,1558.41 971.175,1557.43L951.595,1538.73Z" fill="rgb(242,96,119)" fill-rule="nonzero" transform="matrix(1,0,0,1,0,-1430.24)"/></g><g><path d="M1027.6,1706.27C1026.57,1707.25 1024.89,1707.25 1023.87,1706.27L985.81,1669.92C984.784,1668.94 983.106,1668.94 982.08,1669.92L944.026,1706.27C943,1707.25 941.321,1707.25 940.296,1706.27L920.714,1687.57C919.688,1686.59 919.688,1684.99 920.714,1684.01L958.769,1647.66C959.795,1646.68 959.795,1645.08 958.769,1644.1L920.714,1607.76C919.688,1606.78 919.688,1605.17 920.714,1604.19L940.295,1585.5C941.321,1584.52 942.999,1584.52 944.025,1585.5L982.08,1621.84C983.106,1622.82 984.784,1622.82 985.81,1621.84L1023.86,1585.5C1024.89,1584.52 1026.57,1584.52 1027.59,1585.5L1047.17,1604.2C1048.2,1605.17 1048.2,1606.78 1047.17,1607.76L1009.12,1644.1C1008.1,1645.08 1008.1,1646.68 1009.12,1647.66L1047.17,1684.01C1048.2,1684.98 1048.2,1686.59 1047.17,1687.57L1027.6,1706.27ZM1027.6,1706.27L1027.6,1706.27" fill="none" fill-rule="nonzero" stroke="rgb(152,70,81)" stroke-width="7px" transform="matrix(1,0,0,-1,-76,1814.76)"/></g><g><path d="M994.145,817.861C955,817.728 923.266,849.354 923.266,888.5C923.266,927.646 955,959.487 994.145,959.62C1033.29,959.753 1065.03,928.127 1065.02,888.981C1065.03,849.835 1033.29,817.993 994.145,817.861" fill="white" fill-rule="nonzero" transform="matrix(-0.705905,-0.708306,-0.708306,0.705905,2325.42,956.052)"/></g><g><path d="M1002.79,734.651C974.681,734.528 951.897,757.212 951.897,785.317C951.897,813.423 974.681,836.306 1002.79,836.429C1030.89,836.552 1053.67,813.868 1053.67,785.763C1053.67,757.658 1030.89,734.774 1002.79,734.651" fill="white" fill-rule="nonzero" transform="matrix(-0.705558,-0.708652,-0.708652,0.705558,2266.98,1138.84)"/></g><g><path d="M943.842,827.855L943.842,893.342C943.842,900.563 950.092,906.439 957.771,906.439L1022.77,906.439C1030.45,906.439 1036.7,900.563 1036.7,893.342L1036.7,827.855L943.842,827.855ZM971.7,884.61C971.7,887.02 969.62,888.976 967.057,888.976C964.494,888.976 962.414,887.02 962.414,884.61L962.414,845.318C962.414,842.908 964.494,840.952 967.057,840.952C969.62,840.952 971.7,842.908 971.7,845.318L971.7,884.61ZM994.914,884.61C994.914,887.02 992.834,888.976 990.271,888.976C987.708,888.976 985.628,887.02 985.628,884.61L985.628,845.318C985.628,842.908 987.708,840.952 990.271,840.952C992.834,840.952 994.914,842.908 994.914,845.318L994.914,884.61ZM1018.13,884.61C1018.13,887.02 1016.05,888.976 1013.49,888.976C1010.92,888.976 1008.84,887.02 1008.84,884.61L1008.84,845.318C1008.84,842.908 1010.92,840.952 1013.49,840.952C1016.05,840.952 1018.13,842.908 1018.13,845.318L1018.13,884.61Z" fill="rgb(242,96,119)" fill-rule="nonzero" transform="matrix(1,0,0,1,0,33.7064)"/></g><g><path d="M1019.84,2417.14L1019.84,2351.66C1019.84,2344.44 1026.09,2338.56 1033.77,2338.56L1098.77,2338.56C1106.45,2338.56 1112.7,2344.44 1112.7,2351.66L1112.7,2417.14L1019.84,2417.14ZM1047.7,2360.39C1047.7,2357.98 1045.62,2356.02 1043.06,2356.02C1040.49,2356.02 1038.41,2357.98 1038.41,2360.39L1038.41,2399.68C1038.41,2402.09 1040.49,2404.05 1043.06,2404.05C1045.62,2404.05 1047.7,2402.09 1047.7,2399.68L1047.7,2360.39ZM1070.91,2360.39C1070.91,2357.98 1068.83,2356.02 1066.27,2356.02C1063.71,2356.02 1061.63,2357.98 1061.63,2360.39L1061.63,2399.68C1061.63,2402.09 1063.71,2404.05 1066.27,2404.05C1068.83,2404.05 1070.91,2402.09 1070.91,2399.68L1070.91,2360.39ZM1094.13,2360.39C1094.13,2357.98 1092.05,2356.02 1089.49,2356.02C1086.92,2356.02 1084.84,2357.98 1084.84,2360.39L1084.84,2399.68C1084.84,2402.09 1086.92,2404.05 1089.49,2404.05C1092.05,2404.05 1094.13,2402.09 1094.13,2399.68L1094.13,2360.39ZM1094.13,2360.39L1094.13,2360.39" fill="none" fill-rule="nonzero" stroke="rgb(128,61,71)" stroke-width="6px" transform="matrix(1,0,0,-1,-76,3278.71)"/></g><g><path d="M1041.34,932.634L1013.49,932.634L1013.49,928.268C1013.49,921.047 1007.24,915.17 999.557,915.17L980.985,915.17C973.306,915.17 967.057,921.047 967.057,928.268L967.057,932.634L939.2,932.634C934.078,932.634 929.914,936.55 929.914,941.365L929.914,945.731C929.914,948.141 931.994,950.097 934.557,950.097L1045.99,950.097C1048.55,950.097 1050.63,948.141 1050.63,945.731L1050.63,941.365C1050.63,936.55 1046.46,932.634 1041.34,932.634ZM976.342,928.268C976.342,925.862 978.427,923.902 980.985,923.902L999.557,923.902C1002.12,923.902 1004.2,925.862 1004.2,928.268L1004.2,932.634L976.342,932.634L976.342,928.268Z" fill="rgb(242,96,119)" fill-rule="nonzero" transform="matrix(1,0,0,1,0,-97.2673)"/></g><g><path d="M1117.34,2312.37L1089.49,2312.37L1089.49,2316.73C1089.49,2323.95 1083.24,2329.83 1075.56,2329.83L1056.99,2329.83C1049.31,2329.83 1043.06,2323.95 1043.06,2316.73L1043.06,2312.37L1015.2,2312.37C1010.08,2312.37 1005.91,2308.45 1005.91,2303.64L1005.91,2299.27C1005.91,2296.86 1007.99,2294.9 1010.56,2294.9L1121.99,2294.9C1124.55,2294.9 1126.63,2296.86 1126.63,2299.27L1126.63,2303.64C1126.63,2308.45 1122.46,2312.37 1117.34,2312.37ZM1052.34,2316.73C1052.34,2319.14 1054.43,2321.1 1056.99,2321.1L1075.56,2321.1C1078.12,2321.1 1080.2,2319.14 1080.2,2316.73L1080.2,2312.37L1052.34,2312.37L1052.34,2316.73ZM1052.34,2316.73L1052.34,2316.73" fill="none" fill-rule="nonzero" stroke="rgb(128,61,71)" stroke-width="6px" transform="matrix(1,0,0,-1,-76,3147.73)"/></g><g><path d="M758.801,998.861C719.655,998.727 687.922,1030.35 687.921,1069.5C687.921,1108.65 719.655,1140.49 758.801,1140.62C797.947,1140.75 829.68,1109.13 829.68,1069.98C829.68,1030.84 797.946,998.994 758.801,998.861" fill="white" fill-rule="nonzero" transform="matrix(-0.705907,-0.708305,-0.708305,0.705907,2052.15,480.585)"/></g><g><path d="M745.621,915.307C721.31,908.894 701.602,924.078 701.602,949.22C701.602,974.362 721.31,999.942 745.621,1006.36C769.932,1012.77 789.639,997.584 789.639,972.441C789.639,947.299 769.931,921.719 745.621,915.307" fill="white" fill-rule="nonzero" transform="matrix(-0.610309,-0.792163,-0.792163,0.610309,1961.82,811.418)"/></g><g><path d="M708.497,1008.86L708.497,1074.34C708.497,1081.56 714.747,1087.44 722.426,1087.44L787.426,1087.44C795.105,1087.44 801.355,1081.56 801.355,1074.34L801.355,1008.86L708.497,1008.86ZM736.355,1065.61C736.355,1068.02 734.275,1069.98 731.712,1069.98C729.149,1069.98 727.069,1068.02 727.069,1065.61L727.069,1026.32C727.069,1023.91 729.149,1021.95 731.712,1021.95C734.275,1021.95 736.355,1023.91 736.355,1026.32L736.355,1065.61ZM759.569,1065.61C759.569,1068.02 757.489,1069.98 754.926,1069.98C752.363,1069.98 750.283,1068.02 750.283,1065.61L750.283,1026.32C750.283,1023.91 752.363,1021.95 754.926,1021.95C757.489,1021.95 759.569,1023.91 759.569,1026.32L759.569,1065.61ZM782.783,1065.61C782.783,1068.02 780.703,1069.98 778.14,1069.98C775.578,1069.98 773.497,1068.02 773.497,1065.61L773.497,1026.32C773.497,1023.91 775.578,1021.95 778.14,1021.95C780.703,1021.95 782.783,1023.91 782.783,1026.32L782.783,1065.61Z" fill="rgb(242,96,119)" fill-rule="nonzero" transform="matrix(1,0,0,1,0,-328.294)"/></g><g><path d="M784.497,2236.14L784.497,2170.66C784.497,2163.44 790.747,2157.56 798.426,2157.56L863.426,2157.56C871.105,2157.56 877.355,2163.44 877.355,2170.66L877.355,2236.14L784.497,2236.14ZM812.355,2179.39C812.355,2176.98 810.275,2175.02 807.712,2175.02C805.149,2175.02 803.069,2176.98 803.069,2179.39L803.069,2218.68C803.069,2221.09 805.149,2223.05 807.712,2223.05C810.275,2223.05 812.355,2221.09 812.355,2218.68L812.355,2179.39ZM835.569,2179.39C835.569,2176.98 833.489,2175.02 830.926,2175.02C828.363,2175.02 826.283,2176.98 826.283,2179.39L826.283,2218.68C826.283,2221.09 828.363,2223.05 830.926,2223.05C833.489,2223.05 835.569,2221.09 835.569,2218.68L835.569,2179.39ZM858.783,2179.39C858.783,2176.98 856.703,2175.02 854.14,2175.02C851.578,2175.02 849.497,2176.98 849.497,2179.39L849.497,2218.68C849.497,2221.09 851.578,2223.05 854.14,2223.05C856.703,2223.05 858.783,2221.09 858.783,2218.68L858.783,2179.39ZM858.783,2179.39L858.783,2179.39" fill="none" fill-rule="nonzero" stroke="rgb(128,61,71)" stroke-width="6px" transform="matrix(1,0,0,-1,-76,2916.71)"/></g><g><path d="M805.997,1113.63L778.14,1113.63L778.14,1109.27C778.14,1102.05 771.891,1096.17 764.212,1096.17L745.64,1096.17C737.961,1096.17 731.712,1102.05 731.712,1109.27L731.712,1113.63L703.855,1113.63C698.734,1113.63 694.569,1117.55 694.569,1122.37L694.569,1126.73C694.569,1129.14 696.649,1131.1 699.212,1131.1L810.64,1131.1C813.203,1131.1 815.283,1129.14 815.283,1126.73L815.283,1122.37C815.283,1117.55 811.119,1113.63 805.997,1113.63ZM740.997,1109.27C740.997,1106.86 743.082,1104.9 745.64,1104.9L764.212,1104.9C766.77,1104.9 768.855,1106.86 768.855,1109.27L768.855,1113.63L740.997,1113.63L740.997,1109.27Z" fill="rgb(242,96,119)" fill-rule="nonzero" transform="matrix(1,0,0,1,0,-459.267)"/></g><g><path d="M881.997,2131.37L854.14,2131.37L854.14,2135.73C854.14,2142.95 847.891,2148.83 840.212,2148.83L821.64,2148.83C813.961,2148.83 807.712,2142.95 807.712,2135.73L807.712,2131.37L779.855,2131.37C774.734,2131.37 770.569,2127.45 770.569,2122.64L770.569,2118.27C770.569,2115.86 772.649,2113.9 775.212,2113.9L886.64,2113.9C889.203,2113.9 891.283,2115.86 891.283,2118.27L891.283,2122.64C891.283,2127.45 887.119,2131.37 881.997,2131.37ZM816.997,2135.73C816.997,2138.14 819.082,2140.1 821.64,2140.1L840.212,2140.1C842.77,2140.1 844.855,2138.14 844.855,2135.73L844.855,2131.37L816.997,2131.37L816.997,2135.73ZM816.997,2135.73L816.998,2135.73" fill="none" fill-rule="nonzero" stroke="rgb(128,61,71)" stroke-width="6px" transform="matrix(1,0,0,-1,-76,2785.73)"/></g><g><path d="M1450.56,914.165C1426.25,907.753 1406.55,922.936 1406.55,948.078C1406.55,973.221 1426.25,998.801 1450.56,1005.21C1474.87,1011.62 1494.58,996.442 1494.58,971.3C1494.58,946.158 1474.87,920.578 1450.56,914.165" fill="white" fill-rule="nonzero" transform="matrix(-0.610308,-0.792164,-0.792164,0.610308,3096.08,1371.69)"/></g><g><path d="M1458,998.86C1418.86,998.727 1387.12,1030.35 1387.12,1069.5C1387.12,1108.65 1418.85,1140.49 1458,1140.62C1497.15,1140.75 1528.88,1109.13 1528.88,1069.98C1528.88,1030.84 1497.15,998.994 1458,998.86" fill="white" fill-rule="nonzero" transform="matrix(-0.705903,-0.708308,-0.708308,0.705903,3244.91,975.84)"/></g><g><path d="M1407.7,1008.86L1407.7,1074.34C1407.7,1081.56 1413.95,1087.44 1421.63,1087.44L1486.63,1087.44C1494.31,1087.44 1500.55,1081.56 1500.55,1074.34L1500.55,1008.86L1407.7,1008.86ZM1435.55,1065.61C1435.55,1068.02 1433.47,1069.98 1430.91,1069.98C1428.35,1069.98 1426.27,1068.02 1426.27,1065.61L1426.27,1026.32C1426.27,1023.91 1428.35,1021.95 1430.91,1021.95C1433.47,1021.95 1435.55,1023.91 1435.55,1026.32L1435.55,1065.61ZM1458.77,1065.61C1458.77,1068.02 1456.69,1069.98 1454.13,1069.98C1451.56,1069.98 1449.48,1068.02 1449.48,1065.61L1449.48,1026.32C1449.48,1023.91 1451.56,1021.95 1454.13,1021.95C1456.69,1021.95 1458.77,1023.91 1458.77,1026.32L1458.77,1065.61ZM1481.98,1065.61C1481.98,1068.02 1479.9,1069.98 1477.34,1069.98C1474.78,1069.98 1472.7,1068.02 1472.7,1065.61L1472.7,1026.32C1472.7,1023.91 1474.78,1021.95 1477.34,1021.95C1479.9,1021.95 1481.98,1023.91 1481.98,1026.32L1481.98,1065.61Z" fill="rgb(242,96,119)" fill-rule="nonzero" transform="matrix(1,0,0,1,0,-328.294)"/></g><text x="79.675" y="1518.76" font-family="'HelveticaNeue-Bold', 'Helvetica Neue'" font-weight="700" font-size="90px" fill="rgb(77,101,136)">A</text><text x="393.82" y="1518.76" font-family="'HelveticaNeue-Bold', 'Helvetica Neue'" font-weight="700" font-size="90px" fill="rgb(77,101,136)">B</text><text x="710.155" y="1518.76" font-family="'HelveticaNeue-Bold', 'Helvetica Neue'" font-weight="700" font-size="90px" fill="rgb(77,101,136)">C</text><text x="1053.84" y="1518.76" font-family="'HelveticaNeue-Bold', 'Helvetica Neue'" font-weight="700" font-size="90px" fill="rgb(160,73,69)">∇<tspan x="1114.48" y="1518.76">C</tspan></text><text x="1377.5" y="1518.76" font-family="'HelveticaNeue-Bold', 'Helvetica Neue'" font-weight="700" font-size="90px" fill="rgb(160,73,69)">∇<tspan x="1438.14" y="1518.76">B</tspan></text><text x="1700.36" y="1518.76" font-family="'HelveticaNeue-Bold', 'Helvetica Neue'" font-weight="700" font-size="90px" fill="rgb(160,73,69)">∇<tspan x="1761" y="1518.76">A</tspan></text><text x="257.33" y="1283.42" font-family="'HelveticaNeue', 'Helvetica Neue'" font-size="70px" fill="rgb(94,94,94)">1</text><text x="497.728" y="1283.42" font-family="'HelveticaNeue', 'Helvetica Neue'" font-size="70px" fill="rgb(94,94,94)">2</text><text x="736.852" y="1283.42" font-family="'HelveticaNeue', 'Helvetica Neue'" font-size="70px" fill="rgb(94,94,94)">3</text><text x="975.976" y="1283.42" font-family="'HelveticaNeue', 'Helvetica Neue'" font-size="70px" fill="rgb(94,94,94)">4</text><text x="1214.84" y="1283.42" font-family="'HelveticaNeue', 'Helvetica Neue'" font-size="70px" fill="rgb(94,94,94)">5</text><text x="1453.44" y="1283.42" font-family="'HelveticaNeue', 'Helvetica Neue'" font-size="70px" fill="rgb(94,94,94)">6</text><text x="1692.04" y="1283.42" font-family="'HelveticaNeue', 'Helvetica Neue'" font-size="70px" fill="rgb(94,94,94)">7</text><text x="96.669" y="203.057" font-family="'HelveticaNeue-Bold', 'Helvetica Neue'" font-weight="700" font-size="120px">RAM</text><text x="1629" y="1143.33" font-family="'HelveticaNeue-Bold', 'Helvetica Neue'" font-weight="700" font-size="120px">Time</text><text x="932.815" y="395.901" font-family="'HelveticaNeue-Bold', 'Helvetica Neue'" font-weight="700" font-size="90px" fill="rgb(160,73,69)">∇<tspan x="993.455" y="395.901">C</tspan></text><g><text x="1392" y="295.901" font-family="'HelveticaNeue-Bold', 'Helvetica Neue'" font-weight="700" font-size="90px" fill="rgb(160,73,69)">∇<tspan x="1452.64" y="295.901">B</tspan></text><text x="1660" y="347.901" font-family="'HelveticaNeue-Bold', 'Helvetica Neue'" font-weight="700" font-size="90px" fill="rgb(160,73,69)">∇<tspan x="1720.64" y="347.901">A</tspan></text></g><text x="805.781" y="89.401" font-family="'HelveticaNeue-Bold', 'Helvetica Neue'" font-weight="700" font-size="90px" fill="rgb(117,54,63)">OOM</text><text x="957.79" y="1022.94" font-family="'HelveticaNeue-Bold', 'Helvetica Neue'" font-weight="700" font-size="90px" fill="rgb(121,121,121)">C</text><text x="723.246" y="842.347" font-family="'HelveticaNeue-Bold', 'Helvetica Neue'" font-weight="700" font-size="90px" fill="rgb(121,121,121)">B</text><text x="1419.74" y="840.421" font-family="'HelveticaNeue-Bold', 'Helvetica Neue'" font-weight="700" font-size="90px" fill="rgb(121,121,121)">A</text><g><path d="M1483.7,2236.14L1483.7,2170.66C1483.7,2163.44 1489.95,2157.56 1497.63,2157.56L1562.63,2157.56C1570.31,2157.56 1576.55,2163.44 1576.55,2170.66L1576.55,2236.14L1483.7,2236.14ZM1511.55,2179.39C1511.55,2176.98 1509.47,2175.02 1506.91,2175.02C1504.35,2175.02 1502.27,2176.98 1502.27,2179.39L1502.27,2218.68C1502.27,2221.09 1504.35,2223.05 1506.91,2223.05C1509.47,2223.05 1511.55,2221.09 1511.55,2218.68L1511.55,2179.39ZM1534.77,2179.39C1534.77,2176.98 1532.69,2175.02 1530.13,2175.02C1527.56,2175.02 1525.48,2176.98 1525.48,2179.39L1525.48,2218.68C1525.48,2221.09 1527.56,2223.05 1530.13,2223.05C1532.69,2223.05 1534.77,2221.09 1534.77,2218.68L1534.77,2179.39ZM1557.98,2179.39C1557.98,2176.98 1555.9,2175.02 1553.34,2175.02C1550.78,2175.02 1548.7,2176.98 1548.7,2179.39L1548.7,2218.68C1548.7,2221.09 1550.78,2223.05 1553.34,2223.05C1555.9,2223.05 1557.98,2221.09 1557.98,2218.68L1557.98,2179.39ZM1557.98,2179.39L1557.98,2179.39" fill="none" fill-rule="nonzero" stroke="rgb(128,61,71)" stroke-width="6px" stroke-linejoin="miter" transform="matrix(1,0,0,-1,-76,2916.71)"/></g><g><path d="M1505.2,1113.63L1477.34,1113.63L1477.34,1109.27C1477.34,1102.05 1471.09,1096.17 1463.41,1096.17L1444.84,1096.17C1437.16,1096.17 1430.91,1102.05 1430.91,1109.27L1430.91,1113.63L1403.05,1113.63C1397.93,1113.63 1393.77,1117.55 1393.77,1122.37L1393.77,1126.73C1393.77,1129.14 1395.85,1131.1 1398.41,1131.1L1509.84,1131.1C1512.4,1131.1 1514.48,1129.14 1514.48,1126.73L1514.48,1122.37C1514.48,1117.55 1510.32,1113.63 1505.2,1113.63ZM1440.2,1109.27C1440.2,1106.86 1442.28,1104.9 1444.84,1104.9L1463.41,1104.9C1465.97,1104.9 1468.05,1106.86 1468.05,1109.27L1468.05,1113.63L1440.2,1113.63L1440.2,1109.27Z" fill="rgb(242,96,119)" fill-rule="nonzero" transform="matrix(1,0,0,1,0,-459.267)"/></g><g><path d="M1581.2,2131.37L1553.34,2131.37L1553.34,2135.73C1553.34,2142.95 1547.09,2148.83 1539.41,2148.83L1520.84,2148.83C1513.16,2148.83 1506.91,2142.95 1506.91,2135.73L1506.91,2131.37L1479.05,2131.37C1473.93,2131.37 1469.77,2127.45 1469.77,2122.64L1469.77,2118.27C1469.77,2115.86 1471.85,2113.9 1474.41,2113.9L1585.84,2113.9C1588.4,2113.9 1590.48,2115.86 1590.48,2118.27L1590.48,2122.64C1590.48,2127.45 1586.32,2131.37 1581.2,2131.37ZM1516.2,2135.73C1516.2,2138.14 1518.28,2140.1 1520.84,2140.1L1539.41,2140.1C1541.97,2140.1 1544.05,2138.14 1544.05,2135.73L1544.05,2131.37L1516.2,2131.37L1516.2,2135.73ZM1516.2,2135.73L1516.2,2135.73" fill="none" fill-rule="nonzero" stroke="rgb(128,61,71)" stroke-width="6px" stroke-linejoin="miter" transform="matrix(1,0,0,-1,-76,2785.73)"/></g><g><path d="M345.09,2252.79L601.966,2252.79" fill="none" fill-rule="nonzero" stroke="black" stroke-width="13px" transform="matrix(0.641301,-0.767289,0.767289,0.641301,-1634.69,-305.593)"/></g><g><path d="M513.545,1076.11C481.279,1074.12 455.122,1098.72 455.122,1131.04C455.122,1163.37 481.279,1191.19 513.545,1193.17C545.811,1195.16 571.968,1170.57 571.968,1138.24C571.968,1105.91 545.811,1078.09 513.545,1076.11" fill="rgb(218,232,252)" fill-rule="nonzero" stroke="rgb(108,142,191)" stroke-width="11px" transform="matrix(-0.685035,-0.72851,-0.72851,0.685035,1691.94,230.213)"/></g><g><path d="M70.921,2557.89L376.59,2557.89" fill="none" fill-rule="nonzero" stroke="black" stroke-width="13px" transform="matrix(0.626531,-0.779397,0.779397,0.626531,-1986.05,-347.312)"/></g><g><path d="M276.305,789.41C244.039,787.424 217.882,812.02 217.882,844.347C217.882,876.674 244.039,904.491 276.305,906.478C308.572,908.464 334.728,883.868 334.728,851.541C334.728,819.214 308.572,791.397 276.305,789.41" fill="rgb(218,232,252)" fill-rule="nonzero" stroke="rgb(108,142,191)" stroke-width="11px" transform="matrix(-0.685035,-0.72851,-0.72851,0.685035,1083.32,540.476)"/></g><g><path d="M583.946,1969.26L840.628,1969.26" fill="none" fill-rule="nonzero" stroke="black" stroke-width="13px" transform="matrix(0.646962,-0.762522,0.762522,0.646962,-1326.14,-238.641)"/></g><g><path d="M758.801,1360.26C726.535,1358.27 700.377,1382.87 700.378,1415.2C700.378,1447.52 726.535,1475.34 758.801,1477.33C791.067,1479.31 817.224,1454.72 817.223,1422.39C817.223,1390.06 791.066,1362.25 758.801,1360.26" fill="rgb(218,232,252)" fill-rule="nonzero" stroke="rgb(108,142,191)" stroke-width="11px" transform="matrix(-0.685035,-0.72851,-0.72851,0.685035,2312.21,-69.9228)"/></g><g><path d="M1230.31,1104.26C1198.04,1102.27 1171.88,1126.87 1171.88,1159.2C1171.88,1191.52 1198.04,1219.34 1230.31,1221.33C1262.57,1223.31 1288.73,1198.72 1288.73,1166.39C1288.73,1134.06 1262.57,1106.25 1230.31,1104.26" fill="rgb(218,232,252)" fill-rule="nonzero" stroke="rgb(108,142,191)" stroke-width="11px" transform="matrix(-0.685033,-0.728512,-0.728512,0.685033,2920.21,704.947)"/></g><text x="484.895" y="666.054" font-family="'HelveticaNeue-Bold', 'Helvetica Neue'" font-weight="700" font-size="90px" fill="rgb(77,101,136)">B</text><text x="248.511" y="949.901" font-family="'HelveticaNeue-Bold', 'Helvetica Neue'" font-weight="700" font-size="90px" fill="rgb(77,101,136)">A</text><text x="724.319" y="381.901" font-family="'HelveticaNeue-Bold', 'Helvetica Neue'" font-weight="700" font-size="90px" fill="rgb(77,101,136)">C</text><text x="1201.66" y="637.901" font-family="'HelveticaNeue-Bold', 'Helvetica Neue'" font-weight="700" font-size="90px" fill="rgb(77,101,136)">B</text></svg>