<svg clip-rule="evenodd" fill-rule="evenodd" viewBox="0 0 952 310" xmlns="http://www.w3.org/2000/svg" xmlns:xlink="http://www.w3.org/1999/xlink"><clipPath id="a"><path clip-rule="evenodd" d="m0 0h951.703v309.02h-951.703z"/></clipPath><clipPath id="b"><path clip-rule="evenodd" d="m0 0h19.154v13.461h-19.154z"/></clipPath><g clip-path="url(#a)"><path d="m78 26h864v268h-864z" fill="none" transform="translate(0 -10)"/><path d="m58 294h20v20h-20z" fill="none" transform="translate(0 -298)"/><path d="m942 294h20v20h-20z" fill="none" transform="translate(0 -298)"/><path d="m58 6h20v20h-20z" fill="none" transform="translate(0 278)"/><path d="m942 6h20v20h-20z" fill="none" transform="translate(0 278)"/><path d="m164.4 4.5h691.2v20h-691.2z" fill="none" transform="translate(0 281)"/><path d="m78 4.5h86.4v20h-86.4z" fill="none" transform="translate(0 281)"/><path d="m855.6 4.5h86.4v20h-86.4z" fill="none" transform="translate(0 281)"/><path d="m56.5 52.8h20v214.4h-20z" fill="none" transform="translate(0 -10)"/><path d="m56.5 26h20v26.8h-20z" fill="none" transform="translate(0 231.2)"/><path d="m56.5 267.2h20v26.8h-20z" fill="none" transform="translate(0 -251.2)"/><path d="m78 26h864" fill="none" stroke="#fff" transform="translate(0 258)"/><path d="m92.4 26h28.8v4.91h-28.8z" fill="#e34a33" transform="translate(0 253.09)"/><path d="m236.4 26h28.8v5.81h-28.8z" fill="#e34a33" transform="translate(0 252.19)"/><path d="m380.4 26h28.8v4.91h-28.8z" fill="#e34a33" transform="translate(0 253.09)"/><path d="m524.4 26h28.8v22.56h-28.8z" fill="#e34a33" transform="translate(0 235.44)"/><path d="m668.4 26h28.8v42.66h-28.8z" fill="#e34a33" transform="translate(0 215.34)"/><path d="m812.4 26h28.8v48.46h-28.8z" fill="#e34a33" transform="translate(0 209.54)"/><path d="m121.2 26h28.8v4.24h-28.8z" fill="#ffbf15" transform="matrix(1 0 0 .93796 0 255.636)"/><path d="m265.2 26h28.8v9.38h-28.8z" fill="#ffbf15" transform="translate(0 248.62)"/><path d="m409.2 26h28.8v7.37h-28.8z" fill="#ffbf15" transform="translate(0 250.63)"/><path d="m553.2 26h28.8v26.35h-28.8z" fill="#ffbf15" transform="translate(0 231.65)"/><path d="m697.2 26h28.8v49.8h-28.8z" fill="#ffbf15" transform="translate(0 208.2)"/><path d="m841.2 26h28.8v101.39h-28.8z" fill="#ffbf15" transform="matrix(1 0 0 .988541 0 158.07)"/><path d="m150 26h28.8v7.37h-28.8z" fill="#00bf7d" transform="matrix(1 0 0 .656026 0 262.108)"/><path d="m294 26h28.8v9.38h-28.8z" fill="#00bf7d" transform="translate(0 248.62)"/><path d="m438 26h28.8v8.71h-28.8z" fill="#00bf7d" transform="translate(0 249.29)"/><path d="m582 26h28.8v36.85h-28.8z" fill="#00bf7d" transform="translate(0 221.15)"/><path d="m726 26h28.8v51.59h-28.8z" fill="#00bf7d" transform="translate(0 206.41)"/><path d="m870 26h28.8v55.39h-28.8z" fill="#00bf7d" transform="matrix(1 0 0 2.02041 0 119.559)"/><path d="m178.8 26h28.8v12.73h-28.8z" fill="#43a2ca" transform="translate(0 245.27)"/><path d="m322.8 26h28.8v13.4h-28.8z" fill="#43a2ca" transform="translate(0 244.6)"/><path d="m466.8 26h28.8v13.85h-28.8z" fill="#43a2ca" transform="translate(0 244.15)"/><path d="m610.8 26h28.8v43.1h-28.8z" fill="#43a2ca" transform="translate(0 214.9)"/><path d="m754.8 26h28.8v64.54h-28.8z" fill="#43a2ca" transform="translate(0 193.46)"/><path d="m898.8 26h28.8v246.78h-28.8z" fill="#43a2ca" transform="translate(0 11.22)"/><path d="m74.515 24.5h866.485" fill="none" stroke="#3d3d3d" stroke-width="4" transform="translate(0 261)"/><path d="m-57.5 160h268" fill="none" stroke="#3d3d3d" stroke-width="4" transform="matrix(0 1 1 0 -83.5 73.5)"/><path d="m186.236 273.084h605v34h-605z" fill="none" transform="translate(0 -270.168)"/><g fill="#333" font-family="'ArialMT', 'Arial', sans-serif"><text font-size="14" x="99.014" y="272.84">22</text><text font-size="14" x="243.014" y="271.94">26</text><text font-size="14" x="387.014" y="272.84">22</text><text font-size="14" x="527.121" y="255.19">101</text><text font-size="14" x="671.121" y="235.09">191</text><text font-size="14" x="815.121" y="229.29">217</text><text font-size="14" transform="translate(0 1)" x="127.814" y="273.51">18</text><text font-size="14" x="271.814" y="268.37">42</text><text font-size="14" x="415.814" y="270.38">33</text><text font-size="14" transform="translate(-2)" x="556.441" y="251.4">1<tspan x="563.188 570.974" y="251.4 251.4">18</tspan></text><text font-size="14" x="699.921" y="227.95">223</text><text font-size="14" transform="translate(0 1)" x="843.921" y="176.36">448</text><text font-size="15" transform="translate(0 4)" x="156.058" y="269.88">21</text><text font-size="15" x="300.058" y="267.87">42</text><text font-size="15" x="444.058" y="268.54">39</text><text font-size="15" transform="translate(-2)" x="583.886" y="240.4">165</text><text font-size="15" x="727.886" y="225.66">231</text><text font-size="15" transform="translate(0 -56.3876)" x="871.886" y="221.86">504</text><text font-size="14" x="185.414" y="265.02">57</text><text font-size="14" x="329.414" y="264.35">60</text><text font-size="14" x="473.414" y="263.9">62</text><text font-size="14" x="613.521" y="234.65">193</text><text font-size="14" x="757.521" y="213.21">289</text><text font-size="12.746" x="899.495" y="31.261">1<tspan x="905.638 912.727" y="31.261 31.261">10</tspan>5</text><text font-size="16" x="103.777" y="306.2">U-Net (VGG)</text><text font-size="16" x="273.109" y="306.2">FCN8</text><text font-size="16" x="411.316" y="306.2">SegNet</text><text font-size="16" x="546.426" y="306.2">ResNet50</text><text font-size="16" x="699.32" y="306.2">VGG19</text><text font-size="16" x="833.984" y="306.2">MobileNet</text><text font-size="17" x="62.145" y="289.95">0</text><text font-size="17" x="43.236" y="178.28">500</text><text font-size="17" x="33.782" y="66.62">1000</text><text font-size="20" transform="rotate(-90)" x="-254.172" y="20.801">Max batch size feasible</text></g><path d="m200.236 284.184h12v12h-12z" fill="#e34a33" transform="translate(-20.3802 -270.368)"/><text fill="#333" font-family="'ArialMT', 'Arial', sans-serif" font-size="16" transform="translate(-20.3802)" x="220.236" y="26.056">Checkpoint all</text><path d="m347.236 284.184h12v12h-12z" fill="#ffbf15" transform="translate(-22.95398 -270.368)"/><text fill="#333" font-family="'ArialMT', 'Arial', sans-serif" font-size="16" transform="translate(-22.95398)" x="367.236" y="26.056">Chen et al.</text><g clip-path="url(#b)" transform="matrix(1.05988 0 0 1.06914 425.169655 12.224307)"><g transform="matrix(1.13 0 0 1.13 -63.986 -63.6087)"><path d="m4.89 10.459-2.104-4.65c-.084-.192-.144-.192-.18-.192-.012 0-.072 0-.203.096l-1.136.861c-.155.119-.155.155-.155.191 0 .06.036.132.119.132.072 0 .275-.168.407-.263.072-.06.251-.192.382-.287l2.356 5.176c.083.192.143.192.251.192.179 0 .215-.072.298-.239l5.428-11.238c.084-.168.084-.216.084-.239 0-.12-.096-.24-.239-.24-.096 0-.18.06-.275.251z" fill-rule="nonzero" transform="translate(56.6524 56.7963)"/><path d="m66.615 56.318h6.988v.478h-6.988z"/><path d="m2.702-3.265c.024-.072.323-.67.765-1.052.311-.287.717-.478 1.184-.478.478 0 .645.358.645.836 0 .682-.49 2.045-.729 2.69-.108.287-.168.443-.168.658 0 .538.371.968.945.968 1.112 0 1.53-1.757 1.53-1.829 0-.06-.048-.108-.119-.108-.108 0-.12.036-.18.24-.275.98-.729 1.458-1.195 1.458-.12 0-.311-.012-.311-.394 0-.299.131-.658.203-.825.239-.658.741-1.997.741-2.678 0-.718-.418-1.256-1.327-1.256-1.064 0-1.626.754-1.841 1.052-.036-.681-.526-1.052-1.052-1.052-.382 0-.645.228-.849.634-.215.43-.382 1.148-.382 1.196 0 .047.048.107.131.107.096 0 .108-.012.18-.287.191-.729.406-1.41.884-1.41.275 0 .371.191.371.549 0 .263-.12.73-.203 1.1l-.335 1.291c-.048.228-.179.766-.239.981-.084.311-.215.873-.215.932 0 .168.131.299.311.299.143 0 .31-.072.406-.251.024-.06.132-.478.191-.717l.263-1.076z" fill-rule="nonzero" transform="translate(66.615 65.991)"/></g></g><path d="m482.686 284.184h12v12h-12z" fill="#00bf7d" transform="translate(-21.79979 -270.368)"/><text fill="#333" font-family="'ArialMT', 'Arial', sans-serif" font-size="16" transform="translate(-21.79979)" x="502.686" y="26.056">Chen et al. greedy</text><text fill="#333" font-family="'ArialMT', 'Arial', sans-serif" font-size="16" transform="translate(7.0806)" x="640.819" y="26.056">Checkmate (proposed)</text><path d="m620.819 284.184h12v12h-12z" fill="#43a2ca" transform="translate(7.0806 -270.368)"/></g></svg>